<svg width="311" height="163" viewBox="0 0 311 163" fill="none" xmlns="http://www.w3.org/2000/svg">
<g clip-path="url(#clip0_5_89)">
<path d="M305.822 32.044C305.822 32.7492 305.8 33.4515 305.758 34.1454C305.516 38.1561 304.565 42.0818 302.956 45.7163C302.942 45.7473 302.929 45.7784 302.916 45.8065C302.842 45.9758 302.765 46.1423 302.686 46.3087C300.243 51.5397 296.508 55.9607 291.881 59.0949C287.255 62.2291 281.914 63.9575 276.433 64.0936L276.732 82.3272L280.609 80.1495L281.303 81.5543L276.761 84.1015L277.288 116.264L277.315 117.956H274.343L274.372 116.264L275.274 64.0965C271.303 64.0362 267.382 63.1354 263.74 61.4463C260.098 59.7573 256.807 57.3138 254.058 54.2577C253.868 54.0489 253.682 53.8346 253.497 53.6201C253.489 53.6117 253.484 53.6032 253.478 53.5975C251.187 50.9354 249.334 47.8798 247.998 44.5598C248.027 44.5965 248.059 44.6275 248.088 44.6642C245.067 37.1374 244.862 28.6642 247.514 20.9813C250.166 13.2984 255.475 6.98774 262.352 3.34265C262.455 3.28907 262.564 3.23535 262.667 3.17902C269.469 -0.313267 277.254 -0.953895 284.478 1.38412C291.703 3.72214 297.84 8.86813 301.672 15.802C301.855 16.1291 302.032 16.4649 302.201 16.8006C304.583 21.48 305.827 26.7204 305.822 32.044Z" fill="#F2F2F2"/>
<path d="M32 65.7087C32 66.1424 31.987 66.5743 31.9609 67.0011C31.8119 69.4678 31.2271 71.8824 30.2372 74.1177C30.2291 74.1368 30.2209 74.1559 30.2128 74.1732C30.1673 74.2773 30.1201 74.3798 30.0712 74.4821C28.5691 77.6994 26.2715 80.4185 23.426 82.3462C20.5806 84.2739 17.2954 85.3369 13.9248 85.4207L14.1087 96.6352L16.4933 95.2958L16.9197 96.1599L14.1266 97.7265L14.4506 117.508L14.4669 118.549H12.6389L12.6569 117.508L13.2119 85.4225C10.7692 85.3854 8.35779 84.8313 6.1177 83.7925C3.87761 82.7537 1.85349 81.2508 0.162906 79.3711C0.0457582 79.2427 -0.0682054 79.1109 -0.182094 78.979C-0.187021 78.9738 -0.19029 78.9686 -0.193549 78.9651C-1.60285 77.3278 -2.7425 75.4484 -3.56443 73.4064C-3.54654 73.429 -3.52699 73.4481 -3.50911 73.4706C-5.36685 68.8413 -5.49306 63.6299 -3.86187 58.9045C-2.23068 54.1792 1.03435 50.2978 5.26405 48.0559C5.32747 48.023 5.39425 47.9899 5.45774 47.9553C9.64143 45.8073 14.4295 45.4133 18.873 46.8513C23.3164 48.2893 27.0907 51.4543 29.4478 55.719C29.5601 55.9202 29.6692 56.1267 29.7733 56.3332C31.2381 59.2113 32.0036 62.4344 32 65.7087Z" fill="#F2F2F2"/>
<path d="M77.3333 15.022C77.0269 15.0734 76.7478 15.2398 76.5465 15.4913C76.3451 15.7428 76.2347 16.0627 76.2352 16.3933V118.651H82.7483V28.0542H226.036V118.998H232.549V16.7152C232.551 16.3897 232.445 16.0741 232.249 15.8238C232.054 15.5735 231.783 15.4045 231.482 15.3465C155.044 1.32651 86.4847 13.4889 77.3333 15.022Z" fill="#E5E5E5"/>
<path d="M144.622 99.9067V103.031H155.043V118.651H159.277V103.031H201.612V118.651H205.846V103.031H216.266V99.9067H144.622Z" fill="#CBCBCB"/>
<path d="M136.807 33.608H89.2614V103.031H136.807V33.608Z" fill="#E5E5E5"/>
<path d="M132.29 40.2032H93.7782V96.4354H132.29V40.2032Z" fill="white"/>
<path d="M183.05 28.0542H179.142V99.9066H183.05V28.0542Z" fill="#E5E5E5"/>
<path d="M310.674 118.651H0.325654C0.239286 118.651 0.156454 118.614 0.0953817 118.549C0.0343097 118.484 0 118.396 0 118.304C0 118.211 0.0343097 118.123 0.0953817 118.058C0.156454 117.993 0.239286 117.956 0.325654 117.956H310.674C310.761 117.956 310.844 117.993 310.905 118.058C310.966 118.123 311 118.211 311 118.304C311 118.396 310.966 118.484 310.905 118.549C310.844 118.614 310.761 118.651 310.674 118.651Z" fill="#CCCCCC"/>
<path d="M176.83 160.651H149.801C149.715 160.651 149.632 160.615 149.571 160.55C149.51 160.485 149.475 160.396 149.475 160.304C149.475 160.212 149.51 160.124 149.571 160.059C149.632 159.994 149.715 159.957 149.801 159.957H176.83C176.917 159.957 177 159.994 177.061 160.059C177.122 160.124 177.156 160.212 177.156 160.304C177.156 160.396 177.122 160.485 177.061 160.55C177 160.615 176.917 160.651 176.83 160.651Z" fill="#CBCBCB"/>
<path d="M249.126 160.651H222.096C222.01 160.651 221.927 160.615 221.866 160.55C221.805 160.485 221.771 160.396 221.771 160.304C221.771 160.212 221.805 160.124 221.866 160.059C221.927 159.994 222.01 159.957 222.096 159.957H249.126C249.212 159.957 249.295 159.994 249.356 160.059C249.417 160.124 249.451 160.212 249.451 160.304C249.451 160.396 249.417 160.485 249.356 160.55C249.295 160.615 249.212 160.651 249.126 160.651Z" fill="#CBCBCB"/>
<path d="M38.7529 160.651H11.7236C11.6372 160.651 11.5544 160.615 11.4933 160.55C11.4322 160.485 11.3979 160.396 11.3979 160.304C11.3979 160.212 11.4322 160.124 11.4933 160.059C11.5544 159.994 11.6372 159.957 11.7236 159.957H38.7529C38.8393 159.957 38.9221 159.994 38.9832 160.059C39.0442 160.124 39.0785 160.212 39.0785 160.304C39.0785 160.396 39.0442 160.485 38.9832 160.55C38.9221 160.615 38.8393 160.651 38.7529 160.651Z" fill="#CBCBCB"/>
<path d="M131.267 76.4301C130.854 79.8742 129.338 83.0253 127.72 86.0607C127.666 86.1641 127.611 86.2659 127.555 86.3692H110.74C110.4 86.2751 110.065 86.1718 109.73 86.0607C107.831 85.4444 106.038 84.5042 104.421 83.2767C98.2352 78.5262 95.8548 69.5495 96.93 61.506C97.5985 56.5086 99.6561 51.4064 103.663 48.715C105.839 47.3025 108.435 46.8177 110.931 47.3577C110.995 47.37 111.059 47.3855 111.124 47.3993C113.219 47.9022 115.086 49.1515 116.148 51.1643C118.058 54.7812 116.921 59.2618 115.982 63.2874C115.045 67.3131 114.537 72.1315 117.255 75.1006C116.857 73.8589 116.776 72.5265 117.021 71.2405C117.265 69.9544 117.827 68.7611 118.648 67.7831C119.469 66.8051 120.519 66.0777 121.691 65.6758C122.863 65.2739 124.114 65.2118 125.316 65.4961C125.513 65.5408 125.707 65.5917 125.898 65.6534C126.36 65.7975 126.805 65.9962 127.225 66.2457C130.43 68.1536 131.728 72.5479 131.267 76.4301Z" fill="#F2F2F2"/>
<path d="M121.297 86.0607C121.762 86.1764 122.23 86.2782 122.7 86.3692H120.158C119.825 86.2735 119.493 86.1717 119.165 86.0607C118.443 85.8201 117.732 85.544 117.032 85.2324C114.193 84.004 111.673 82.0669 109.683 79.5842C108.726 78.3692 107.945 77.0087 107.364 75.5478C106.736 73.8966 106.336 72.1565 106.178 70.3824C105.823 66.7423 106.185 63.002 106.861 59.4268C107.558 55.7213 108.684 52.1222 110.212 48.7119C110.396 48.3031 110.586 47.897 110.782 47.4934C110.796 47.4602 110.816 47.4307 110.842 47.4071C110.868 47.3836 110.899 47.3667 110.931 47.3577C110.998 47.3439 111.067 47.3588 111.124 47.3993C111.192 47.4408 111.242 47.5084 111.264 47.5882C111.287 47.6679 111.279 47.7538 111.244 47.8281C109.668 51.1035 108.474 54.5718 107.687 58.1559C106.877 61.6713 106.521 65.2882 106.629 68.9063C106.771 72.2657 107.595 75.5694 109.463 78.3164C111.204 80.8132 113.493 82.8159 116.131 84.1481C117.78 84.9894 119.513 85.6309 121.297 86.0607Z" fill="white"/>
<path d="M126.876 86.3692H126.127C126.043 86.2674 125.962 86.164 125.882 86.0607C124.175 83.8496 123.018 81.2152 122.519 78.4012C121.913 74.8896 122.385 71.2633 123.864 68.0595C124.276 67.1612 124.762 66.3034 125.316 65.4961C125.513 65.5409 125.707 65.5917 125.898 65.6534C123.781 68.617 122.695 72.2722 122.827 75.9945C122.958 79.7167 124.298 83.2748 126.617 86.0607C126.701 86.164 126.788 86.2674 126.876 86.3692Z" fill="white"/>
<path d="M177.407 81.2372C179.449 81.2372 181.105 79.4727 181.105 77.296C181.105 75.1194 179.449 73.3549 177.407 73.3549C175.365 73.3549 173.71 75.1194 173.71 77.296C173.71 79.4727 175.365 81.2372 177.407 81.2372Z" fill="#2F2E41"/>
<path d="M168.205 111.017H166.586L165.816 104.361H168.205L168.205 111.017Z" fill="#FEB8B8"/>
<path d="M165.43 110.524H168.552V112.619H163.464C163.464 112.344 163.515 112.072 163.614 111.817C163.713 111.563 163.857 111.332 164.04 111.138C164.223 110.943 164.439 110.789 164.678 110.683C164.916 110.578 165.172 110.524 165.43 110.524Z" fill="#2F2E41"/>
<path d="M165.678 110.054L164.134 109.537L165.268 102.941L167.548 103.703L165.678 110.054Z" fill="#FEB8B8"/>
<path d="M163.168 108.698L166.147 109.694L165.558 111.694L160.704 110.07C160.86 109.54 161.207 109.097 161.669 108.84C162.131 108.583 162.67 108.532 163.168 108.698L163.168 108.698Z" fill="#2F2E41"/>
<path d="M166.205 107.398C166.134 107.398 166.064 107.384 165.998 107.358L164.806 106.882C164.673 106.828 164.562 106.725 164.493 106.591C164.425 106.457 164.404 106.301 164.435 106.152C164.735 104.715 165.757 99.8222 166.316 97.1979C166.98 94.0851 176.662 93.5066 177.074 93.4835L177.108 93.4816L178.197 94.9399C178.59 96.2882 178.465 97.3399 177.826 98.0658C175.96 100.184 170.388 98.8696 169.723 98.7033L166.762 106.99C166.719 107.11 166.642 107.213 166.543 107.286C166.444 107.359 166.326 107.398 166.205 107.398H166.205Z" fill="#2F2E41"/>
<path d="M167.922 108.383C167.851 108.383 167.781 108.37 167.715 108.343L166.523 107.867C166.39 107.813 166.279 107.71 166.21 107.576C166.142 107.442 166.121 107.286 166.152 107.137C166.452 105.7 167.474 100.807 168.033 98.1831C168.697 95.0703 178.379 94.4919 178.791 94.4688L178.825 94.4669L179.913 95.9255C180.307 97.2739 180.182 98.3256 179.543 99.0515C177.676 101.169 172.104 99.8552 171.44 99.6888L168.478 107.975C168.435 108.095 168.359 108.199 168.259 108.271C168.16 108.344 168.042 108.383 167.922 108.383L167.922 108.383Z" fill="#2F2E41"/>
<path d="M164.476 88.1112C164.52 88.1736 164.559 88.2395 164.593 88.3085L171.106 89.0398L172.043 87.6696L174.168 88.9075L172.327 92.2323L164.339 90.0615C164.138 90.2709 163.881 90.41 163.603 90.4602C163.326 90.5104 163.041 90.4694 162.786 90.3426C162.531 90.2158 162.318 90.0092 162.176 89.7504C162.033 89.4915 161.968 89.1926 161.989 88.8934C162.01 88.5943 162.116 88.309 162.293 88.0756C162.47 87.8422 162.709 87.6717 162.979 87.5867C163.249 87.5018 163.537 87.5065 163.804 87.6001C164.072 87.6938 164.306 87.872 164.476 88.111L164.476 88.1112Z" fill="#FEB8B8"/>
<path d="M179.611 96.4839C179.517 96.4836 179.424 96.4596 179.34 96.4136C178.038 95.7077 175.502 94.4853 173.15 94.2296C173.07 94.2211 172.992 94.1949 172.922 94.1525C172.851 94.1101 172.79 94.0524 172.742 93.9833C172.692 93.9134 172.657 93.8335 172.638 93.7484C172.619 93.6634 172.617 93.5752 172.631 93.4892C172.844 92.2371 173.33 89.0486 173.268 86.4934C173.249 85.7077 173.482 84.9387 173.928 84.3128C174.374 83.6869 175.007 83.2413 175.722 83.0494C176.152 82.9283 176.589 82.8365 177.03 82.7743C177.538 82.7058 178.053 82.7649 178.535 82.9469C179.017 83.1289 179.452 83.4286 179.806 83.8221C180.16 84.2157 180.422 84.6921 180.572 85.2131C180.722 85.7342 180.755 86.2854 180.67 86.8227C180.25 89.4708 179.827 93.1694 180.195 95.7513C180.212 95.867 180.198 95.9855 180.156 96.0935C180.113 96.2016 180.044 96.295 179.955 96.3635C179.855 96.4413 179.735 96.4834 179.611 96.4839Z" fill="#5755DF"/>
<path d="M173.388 89.7484C173.307 89.7483 173.227 89.7304 173.152 89.6959L171.456 88.9132C171.311 88.8463 171.198 88.721 171.14 88.5649C171.082 88.4087 171.084 88.2344 171.146 88.0802L172.458 84.851C172.615 84.4558 172.913 84.1434 173.287 83.9826C173.66 83.8217 174.078 83.8255 174.449 83.9932C174.82 84.1609 175.113 84.4788 175.264 84.8768C175.415 85.2748 175.411 85.7204 175.254 86.1156L175.245 86.1369L173.934 89.3663C173.888 89.4796 173.811 89.5761 173.715 89.644C173.618 89.7119 173.504 89.7482 173.388 89.7484Z" fill="#5755DF"/>
<path d="M177.272 81.6757C179.063 81.6757 180.516 80.1279 180.516 78.2186C180.516 76.3093 179.063 74.7614 177.272 74.7614C175.481 74.7614 174.029 76.3093 174.029 78.2186C174.029 80.1279 175.481 81.6757 177.272 81.6757Z" fill="#FEB8B8"/>
<path d="M173.97 76.5197C175.507 77.5194 177.239 78.1277 179.031 78.2973L178.498 77.616C178.886 77.7691 179.295 77.8556 179.709 77.8723C179.916 77.8787 180.122 77.8332 180.31 77.7395C180.497 77.6459 180.662 77.5066 180.79 77.3329C180.895 77.1526 180.957 76.948 180.971 76.7366C180.986 76.5251 180.952 76.3131 180.873 76.1186C180.71 75.7305 180.457 75.3933 180.138 75.1389C179.571 74.6615 178.903 74.3408 178.192 74.2054C177.482 74.07 176.751 74.1241 176.064 74.3629C175.594 74.5129 175.172 74.8012 174.848 75.1948C174.54 75.5991 173.948 75.9594 174.106 76.452L173.97 76.5197Z" fill="#2F2E41"/>
<path d="M177.562 73.6074C178.209 72.9084 178.991 72.369 179.854 72.0271C180.402 71.7815 181.003 71.702 181.591 71.7974C181.883 71.8496 182.157 71.9845 182.383 72.1881C182.61 72.3916 182.781 72.6564 182.879 72.9546C182.978 73.4637 182.904 73.9938 182.67 74.4498C182.465 74.9164 182.191 75.3486 182.025 75.8323C181.856 76.3259 181.805 76.8567 181.877 77.3765C181.949 77.8963 182.142 78.3888 182.438 78.8091C182.734 79.2294 183.123 79.5643 183.571 79.7833C184.02 80.0024 184.512 80.0987 185.004 80.0635C184.445 80.2019 183.894 80.3749 183.354 80.5816C182.797 80.7332 182.141 80.7231 181.727 80.2982C181.29 79.8487 181.281 79.118 181.302 78.4708L181.397 75.5844C181.443 75.0946 181.397 74.5997 181.26 74.1293C181.188 73.8954 181.053 73.6895 180.871 73.5374C180.689 73.3853 180.469 73.2939 180.239 73.2745C179.89 73.3162 179.562 73.4739 179.301 73.7254C179.041 73.9766 178.722 74.147 178.377 74.2179C178.029 74.251 177.632 73.9771 177.658 73.6058" fill="#2F2E41"/>
<path d="M171.819 95.5957C171.604 95.5955 171.392 95.5444 171.198 95.4462C171.004 95.348 170.832 95.2051 170.696 95.0278C170.56 94.8506 170.463 94.6433 170.411 94.421C170.359 94.1988 170.354 93.967 170.396 93.7424C170.438 93.5178 170.527 93.306 170.655 93.1222C170.783 92.9384 170.948 92.7873 171.138 92.6796C171.328 92.5719 171.537 92.5105 171.752 92.4996C171.967 92.4887 172.181 92.5288 172.379 92.6168C172.439 92.6436 172.497 92.6749 172.552 92.7103L178.461 89.8833L178.627 88.1753L181.174 88.1026L181.157 90.9461C181.154 91.2755 181.051 91.5951 180.864 91.8574C180.677 92.1197 180.415 92.3107 180.119 92.4021L173.209 94.498C173.196 94.5466 173.18 94.5945 173.162 94.6414C173.051 94.9236 172.865 95.1647 172.626 95.3344C172.387 95.5042 172.107 95.595 171.82 95.5956L171.819 95.5957Z" fill="#FEB8B8"/>
<path d="M180.958 89.4959C180.885 89.535 180.806 89.5578 180.725 89.5629L178.88 89.6839C178.723 89.694 178.568 89.6372 178.45 89.526C178.332 89.4147 178.26 89.2582 178.25 89.0906L178.048 85.5782C178.036 85.3661 178.063 85.1534 178.127 84.9524C178.192 84.7514 178.294 84.5659 178.426 84.4067C178.558 84.2474 178.718 84.1174 178.897 84.0242C179.077 83.9309 179.271 83.8762 179.47 83.8632C179.669 83.8501 179.869 83.879 180.057 83.9481C180.246 84.0173 180.42 84.1253 180.569 84.2661C180.719 84.4069 180.841 84.5777 180.928 84.7687C181.016 84.9597 181.067 85.1673 181.079 85.3795L181.282 88.8918C181.289 89.0152 181.262 89.1381 181.205 89.2454C181.147 89.3527 181.061 89.4398 180.958 89.4959H180.958Z" fill="#5755DF"/>
<path d="M177.242 94.9655H166.22C166.128 94.9655 166.053 95.0454 166.053 95.1439V95.7723C166.053 95.8709 166.128 95.9508 166.22 95.9508H177.242C177.335 95.9508 177.409 95.8709 177.409 95.7723V95.1439C177.409 95.0454 177.335 94.9655 177.242 94.9655Z" fill="#3F3D56"/>
<path d="M161.818 95.036V88.1388C161.818 87.8963 161.908 87.6638 162.069 87.4922C162.23 87.3207 162.448 87.2242 162.676 87.2239H174.429C174.656 87.2242 174.875 87.3207 175.036 87.4922C175.196 87.6637 175.287 87.8963 175.287 88.1388V95.036C175.287 95.2785 175.196 95.5111 175.036 95.6826C174.875 95.8542 174.656 95.9506 174.429 95.9509H162.676C162.448 95.9506 162.23 95.8541 162.069 95.6826C161.908 95.5111 161.818 95.2785 161.818 95.036Z" fill="#3F3D56"/>
<path d="M168.694 92.4324C169.131 92.4324 169.486 92.0542 169.486 91.5878C169.486 91.1213 169.131 90.7432 168.694 90.7432C168.256 90.7432 167.901 91.1213 167.901 91.5878C167.901 92.0542 168.256 92.4324 168.694 92.4324Z" fill="white"/>
<path d="M158.045 11.7399H150.74C150.456 11.7402 150.184 11.8605 149.984 12.0742C149.783 12.288 149.671 12.5778 149.67 12.88V20.666C149.671 20.9683 149.783 21.2581 149.984 21.4719C150.184 21.6856 150.456 21.8058 150.74 21.8062H151.543V22.3268C151.543 22.4649 151.594 22.5974 151.686 22.695C151.777 22.7926 151.902 22.8475 152.031 22.8475C152.161 22.8475 152.285 22.7926 152.377 22.695C152.468 22.5974 152.52 22.4649 152.52 22.3268V21.8062H156.509V22.3268C156.509 22.4649 156.56 22.5974 156.652 22.695C156.744 22.7926 156.868 22.8475 156.997 22.8475C157.127 22.8475 157.251 22.7926 157.343 22.695C157.435 22.5974 157.486 22.4649 157.486 22.3268V21.8062H158.045C158.328 21.8058 158.6 21.6856 158.801 21.4719C159.001 21.2581 159.114 20.9683 159.114 20.666V12.88C159.114 12.5777 159.001 12.288 158.801 12.0742C158.6 11.8605 158.328 11.7402 158.045 11.7399Z" fill="white"/>
<path d="M158.085 12.5596H150.578V17.7601H158.085V12.5596Z" fill="#E5E5E5"/>
<path d="M152.031 20.9673C152.7 20.9673 153.242 20.3895 153.242 19.6768C153.242 18.964 152.7 18.3862 152.031 18.3862C151.363 18.3862 150.821 18.964 150.821 19.6768C150.821 20.3895 151.363 20.9673 152.031 20.9673Z" fill="#E5E5E5"/>
<path d="M156.874 20.9673C157.543 20.9673 158.085 20.3895 158.085 19.6768C158.085 18.964 157.543 18.3862 156.874 18.3862C156.206 18.3862 155.664 18.964 155.664 19.6768C155.664 20.3895 156.206 20.9673 156.874 20.9673Z" fill="#E5E5E5"/>
<path d="M63.7668 115.84C63.4583 115.824 61.7738 116.66 61.7738 116.66C61.7738 116.66 61.2401 117.01 59.8769 117.235C58.9866 117.382 58.8681 116.878 58.8927 116.511C58.901 116.39 58.9237 116.272 58.9599 116.159V113.935C58.9599 113.935 61.7354 111.945 61.9489 111.82C61.9758 111.806 62.0049 111.799 62.0343 111.798C62.3769 111.782 63.359 112.192 63.8896 112.632C64.4756 113.12 65.2218 112.822 65.2218 112.822C65.2218 112.822 66.6693 111.451 67.0504 112.454C67.0729 112.512 67.0904 112.572 67.1027 112.634C67.3813 113.959 64.0764 115.851 63.7668 115.84Z" fill="#3F3D56"/>
<path opacity="0.1" d="M58.9599 114.469V113.935C58.9599 113.935 61.7354 111.945 61.9489 111.82C61.9758 111.806 62.0049 111.798 62.0343 111.798C62.1613 111.953 62.2755 112.091 62.3438 112.175C62.5456 112.413 60.7042 115.126 58.9599 114.469Z" fill="black"/>
<path d="M58.534 114.084L58.2789 112.736C58.2789 112.736 58.2789 111.571 57.9266 111.346C57.5743 111.12 56.6147 103.3 56.6147 103.3C56.6147 103.3 56.6467 101.572 56.3905 101.346C56.1343 101.12 56.3905 100.872 56.3905 100.872C56.3895 100.623 56.3512 100.377 56.2774 100.144C56.1934 99.89 56.135 99.6256 56.1034 99.356C56.1034 99.356 56.2315 98.7917 56.1034 98.6425C56.0137 98.5372 56.1279 98.3403 55.9187 97.9465C55.7837 97.7126 55.6196 97.5038 55.4319 97.3271C54.7071 96.6073 55.4223 88.4537 55.6187 86.3582C55.6486 86.046 55.6668 85.8692 55.6668 85.8692H57.3747L57.5882 86.7708L57.9287 88.4374C57.9287 88.4374 58.1529 88.6117 58.1529 88.8374C58.1529 89.0631 59.4958 93.8334 59.4958 93.8334C59.5943 94.0255 59.68 94.2263 59.752 94.4341C59.784 94.5845 60.0722 94.8479 60.0722 94.8479C60.0173 94.9894 59.9889 95.1432 59.9889 95.2987C59.9889 95.4542 60.0173 95.608 60.0722 95.7495C60.2633 96.1997 60.8077 98.0782 60.6156 98.9798C60.4234 99.8815 60.1993 99.9567 60.1993 99.9567C60.1993 99.9567 60.0082 100.624 60.3274 100.872C60.6466 101.12 60.4234 101.572 60.4234 101.572L60.8398 105.78C60.8398 105.78 60.8077 107.661 61.287 108.335C61.7663 109.008 61.8304 110.626 61.8304 110.626L61.4696 110.806L61.4045 110.84L61.3831 110.852C61.3831 110.852 62.1186 111.753 62.3438 112.017C62.5691 112.28 60.3882 115.439 58.534 114.084Z" fill="#65617D"/>
<path opacity="0.1" d="M62.3396 112.02C62.1464 112.7 60.2046 115.155 58.534 113.935L58.2789 112.587C58.7358 112.152 60.1608 110.882 61.4013 110.694L61.3799 110.705L61.4664 110.81L61.4013 110.844L61.3799 110.855C61.3799 110.855 62.1154 111.757 62.3396 112.02Z" fill="black"/>
<path d="M58.534 114.084L58.2789 112.736C58.7358 112.301 60.1608 111.031 61.4013 110.843L61.3799 110.854C61.3799 110.854 62.1154 111.756 62.3406 112.019C62.5659 112.282 60.3882 115.439 58.534 114.084Z" fill="#65617D"/>
<path d="M63.3515 113.008C63.3957 113.008 63.4315 112.966 63.4315 112.914C63.4315 112.862 63.3957 112.82 63.3515 112.82C63.3073 112.82 63.2715 112.862 63.2715 112.914C63.2715 112.966 63.3073 113.008 63.3515 113.008Z" fill="white"/>
<path d="M62.8295 112.916C62.8737 112.916 62.9095 112.873 62.9095 112.822C62.9095 112.77 62.8737 112.728 62.8295 112.728C62.7853 112.728 62.7495 112.77 62.7495 112.822C62.7495 112.873 62.7853 112.916 62.8295 112.916Z" fill="white"/>
<path d="M63.7999 113.102C63.8441 113.102 63.8799 113.06 63.8799 113.008C63.8799 112.957 63.8441 112.914 63.7999 112.914C63.7557 112.914 63.7198 112.957 63.7198 113.008C63.7198 113.06 63.7557 113.102 63.7999 113.102Z" fill="white"/>
<path d="M62.2755 112.822C62.3197 112.822 62.3555 112.779 62.3555 112.727C62.3555 112.676 62.3197 112.633 62.2755 112.633C62.2313 112.633 62.1955 112.676 62.1955 112.727C62.1955 112.779 62.2313 112.822 62.2755 112.822Z" fill="white"/>
<path opacity="0.1" d="M63.7668 115.84C63.4583 115.824 61.7738 116.66 61.7738 116.66C61.7738 116.66 61.2401 117.01 59.8769 117.234C58.9866 117.382 58.8681 116.878 58.8927 116.511C59.1181 116.631 59.3724 116.652 59.61 116.571C60.2174 116.384 62.3182 115.989 62.3182 115.989C62.3182 115.989 63.7059 115.395 63.7465 115.056L67.0504 112.454C67.0729 112.512 67.0904 112.572 67.1027 112.633C67.3813 113.959 64.0764 115.851 63.7668 115.84Z" fill="black"/>
<path d="M62.2083 86.3532H61.4408V115.317H62.2083V86.3532Z" fill="#6C63FF"/>
<path d="M62.1496 86.6842C62.1743 86.3941 62.2867 86.1239 62.4664 85.9227C62.6461 85.7215 62.8811 85.6026 63.1291 85.5874C63.377 85.5722 63.6213 85.6619 63.8178 85.8401C64.0143 86.0183 64.1499 86.2733 64.2002 86.5588C64.2908 86.6286 64.3759 86.708 64.4543 86.7959C64.4953 86.8405 64.5471 86.8691 64.6025 86.8779C64.6579 86.8868 64.7143 86.8753 64.764 86.8452C64.8136 86.815 64.8542 86.7677 64.8802 86.7095C64.9061 86.6513 64.9162 86.5851 64.909 86.52C64.9084 86.5129 64.9084 86.5057 64.909 86.4987C64.8738 86.2076 64.7856 85.9289 64.6505 85.6815C64.5155 85.434 64.3366 85.2237 64.1261 85.0646C63.9157 84.9056 63.6786 84.8017 63.4309 84.7599C63.1832 84.7182 62.9307 84.7395 62.6907 84.8226C62.4506 84.9056 62.2286 85.0484 62.0398 85.2412C61.8509 85.434 61.6996 85.6724 61.5961 85.94C61.4926 86.2076 61.4393 86.4983 61.44 86.7923C61.4406 87.0862 61.4951 87.3766 61.5998 87.6436C61.7007 87.2684 61.8916 86.9353 62.1496 86.6842Z" fill="#6C63FF"/>
<path d="M62.4954 114.285H61.2006V116.408H62.4954V114.285Z" fill="#6C63FF"/>
<path d="M55.7084 60.7024C55.4406 61.1099 55.2248 61.5611 55.0679 62.0417C54.5598 63.6167 54.9409 64.8858 54.9409 64.8858C54.9409 64.8858 50.3144 63.6832 50.7627 63.0825C51.0339 62.7176 51.2581 61.3144 51.3926 60.266C51.4801 59.5826 51.5303 59.0496 51.5303 59.0496C51.5303 59.0496 57.094 58.5744 55.7084 60.7024Z" fill="#FABDBD"/>
<path d="M57.0374 117.094C56.9803 117.463 56.8157 117.797 56.572 118.038C56.2197 118.388 52.8625 118.514 52.1804 118.214C51.4982 117.914 49.3238 117.8 48.7794 117.775C48.235 117.75 48.0236 117.162 47.9051 116.873C47.872 116.791 47.8966 116.609 47.9521 116.39C48.0876 115.855 48.4036 115.1 48.4709 115.02C48.5221 114.96 48.5712 114.714 48.6043 114.498C48.6331 114.311 48.6523 114.147 48.6523 114.147C50.1116 115.316 52.0309 113.329 52.0309 113.329C52.1028 113.284 52.1849 113.267 52.2658 113.279C52.633 113.332 53.0333 113.898 53.0333 114.147C53.0333 114.452 54.0452 115.025 54.0452 115.025C54.3335 115.414 55.6123 116.14 55.6123 116.14C55.6123 116.14 56.4866 116.165 56.8709 116.552C56.9353 116.619 56.9843 116.703 57.0134 116.798C57.0426 116.893 57.0508 116.995 57.0374 117.094Z" fill="#3F3D56"/>
<path opacity="0.1" d="M57.0374 117.094C56.9803 117.463 56.8157 117.797 56.572 118.038C56.2197 118.388 52.8625 118.514 52.1804 118.214C51.4982 117.914 49.3238 117.8 48.7794 117.775C48.235 117.75 48.0236 117.162 47.9051 116.873C47.872 116.791 47.8966 116.609 47.9521 116.391C48.4312 116.529 48.9034 116.698 49.3665 116.898C50.0486 117.212 51.4662 117.662 51.7149 117.525C51.7107 117.529 55.0743 118.631 57.0374 117.094Z" fill="black"/>
<path opacity="0.1" d="M55.9187 97.9503C55.7837 97.7163 55.6196 97.5075 55.4319 97.3308C54.7071 96.611 55.4223 88.4574 55.6187 86.362C56.4567 86.3068 57.0438 86.3256 57.094 86.4736C57.2669 86.9814 56.1471 96.1169 55.9187 97.9503Z" fill="black"/>
<path opacity="0.1" d="M52.2658 113.284V113.708C49.9173 116.538 48.9779 115.57 48.6043 114.501C48.6331 114.314 48.6523 114.15 48.6523 114.15C50.1116 115.318 52.0309 113.332 52.0309 113.332C52.1031 113.288 52.1852 113.271 52.2658 113.284Z" fill="black"/>
<path d="M56.9093 87.1357C56.7705 89.6538 55.6902 98.2701 55.6902 98.2701C55.6902 98.2701 55.0828 101.425 54.9547 101.538C54.8266 101.651 54.0282 102.29 54.0282 102.29C54.0282 102.29 53.9961 103.756 53.7399 104.171C53.4837 104.587 53.3877 105.637 53.3877 105.637C53.3877 105.637 52.9724 107.74 52.8443 108.792C52.7162 109.845 52.269 111.272 52.269 111.272V113.564C49.3163 117.122 48.5893 114.678 48.4185 113.574C48.3938 113.421 48.3767 113.267 48.3673 113.113L50.0304 101.242C50.0304 101.242 50.3816 100.678 50.3176 100.378C50.2535 100.078 50.4457 99.7009 50.4457 99.7009L50.4404 99.025C50.4404 99.025 50.83 98.4243 50.4404 98.0857C50.0507 97.7471 50.4404 95.1927 50.4404 95.1927C50.4404 95.1927 49.9984 93.728 50.2269 93.3117C50.4553 92.8954 50.2269 92.222 50.3859 91.8458C50.545 91.4696 50.3859 91.8458 49.8105 90.8313C49.5095 90.3021 49.2533 89.3428 49.0761 88.5477C48.9139 87.8166 48.8189 87.2247 48.8189 87.2247C48.8189 87.2247 56.7182 85.9105 56.9104 86.4723C56.9347 86.6926 56.9344 86.9156 56.9093 87.1357Z" fill="#65617D"/>
<path opacity="0.1" d="M55.7084 60.7024C55.4406 61.1099 55.2248 61.5611 55.0679 62.0417C54.7651 62.1545 54.4493 62.2116 54.1317 62.211C52.9938 62.211 52.3629 61.2266 51.826 60.1519C51.8014 60.103 51.415 60.3162 51.3926 60.266C51.4801 59.5826 51.5303 59.0496 51.5303 59.0496C51.5303 59.0496 57.094 58.5744 55.7084 60.7024Z" fill="black"/>
<path d="M57.2221 58.5054C57.2231 59.352 56.9726 60.1726 56.5138 60.8255C56.055 61.4784 55.4167 61.9229 54.7089 62.0822C54.0011 62.2415 53.2681 62.1057 52.6364 61.6982C52.0047 61.2907 51.5137 60.637 51.2483 59.8499C50.9829 59.0628 50.9595 58.1915 51.1823 57.3864C51.4051 56.5812 51.86 55.8926 52.4687 55.4392C53.0773 54.9859 53.8016 54.7962 54.5165 54.9029C55.2315 55.0096 55.8923 55.406 56.3852 56.0237C56.9223 56.6961 57.2215 57.5833 57.2221 58.5054Z" fill="#FABDBD"/>
<path opacity="0.1" d="M56.9093 87.1357C55.8653 87.3514 53.9684 87.774 53.8136 88.0273C53.6001 88.3772 51.9989 88.4775 51.0381 88.628C50.4862 88.7145 49.6771 88.643 49.0676 88.5477C48.9053 87.8166 48.8103 87.2247 48.8103 87.2247C48.8103 87.2247 56.7097 85.9105 56.9018 86.4723C56.929 86.6921 56.9315 86.9151 56.9093 87.1357Z" fill="black"/>
<path d="M57.585 86.7746C57.585 86.7746 54.0271 87.4505 53.8136 87.8016C53.6001 88.1527 51.9989 88.2518 51.0382 88.4023C50.0774 88.5527 48.3524 88.2267 48.2243 88.1264C47.477 87.5408 47.84 80.6638 48.1602 79.811C48.4805 78.9583 48.3737 74.2018 48.0748 72.2983C47.7759 70.3947 48.2243 68.0158 48.2243 68.0158C48.2243 68.0158 48.6715 66.338 48.5872 65.9868C48.5029 65.6357 49.0142 64.8858 49.0142 64.8858C49.0142 64.8858 49.8031 63.3572 50.2077 63.1302C50.2818 63.0884 50.3474 63.0283 50.4001 62.9541C50.4528 62.8799 50.4912 62.7933 50.513 62.7001C50.5887 62.4229 50.5791 62.0731 50.5919 61.7784C50.6133 61.2768 51.0392 61.2768 51.0392 61.2768C52.2551 61.5012 55.1117 63.6055 55.1117 63.6055C55.0049 64.0807 55.687 65.4338 55.687 65.4338C55.6988 65.4551 55.7084 65.4777 55.7191 65.5015C56.4663 67.1556 57.0096 72.2205 57.0096 72.2205C57.0096 72.2205 57.047 74.6395 57.0406 76.4202C57.0406 77.3093 57.0225 78.0391 56.9872 78.231C56.9253 78.5721 57.0481 80.1559 57.173 81.6632C57.2584 82.7053 57.3459 83.7097 57.3726 84.2414C57.443 85.5469 57.585 86.7746 57.585 86.7746Z" fill="#6C63FF"/>
<path opacity="0.1" d="M54.4722 79.8625C54.4722 79.8625 53.5115 82.5674 53.7688 82.9674C54.026 83.3674 54.4722 79.8625 54.4722 79.8625Z" fill="black"/>
<path opacity="0.1" d="M55.6657 81.1641C55.6657 81.1641 54.579 83.1705 54.9836 83.5681C55.3881 83.9656 55.6657 81.1641 55.6657 81.1641Z" fill="black"/>
<path opacity="0.1" d="M52.2657 112.809V113.485C49.3131 117.043 48.5861 114.599 48.4153 113.495C48.9523 114.037 50.1842 114.711 52.2657 112.809Z" fill="black"/>
<path d="M52.2657 112.884V113.56C49.3131 117.118 48.5861 114.674 48.4153 113.57C48.9523 114.112 50.1842 114.787 52.2657 112.884Z" fill="#65617D"/>
<path d="M51.9145 114.807C51.9587 114.807 51.9946 114.765 51.9946 114.713C51.9946 114.661 51.9587 114.619 51.9145 114.619C51.8703 114.619 51.8345 114.661 51.8345 114.713C51.8345 114.765 51.8703 114.807 51.9145 114.807Z" fill="white"/>
<path d="M53.2243 115.751C53.2685 115.751 53.3044 115.709 53.3044 115.657C53.3044 115.605 53.2685 115.563 53.2243 115.563C53.1801 115.563 53.1443 115.605 53.1443 115.657C53.1443 115.709 53.1801 115.751 53.2243 115.751Z" fill="white"/>
<path d="M52.7226 115.363C52.7668 115.363 52.8026 115.321 52.8026 115.269C52.8026 115.217 52.7668 115.175 52.7226 115.175C52.6784 115.175 52.6426 115.217 52.6426 115.269C52.6426 115.321 52.6784 115.363 52.7226 115.363Z" fill="white"/>
<path d="M53.63 116.078C53.6742 116.078 53.71 116.036 53.71 115.984C53.71 115.932 53.6742 115.89 53.63 115.89C53.5858 115.89 53.5499 115.932 53.5499 115.984C53.5499 116.036 53.5858 116.078 53.63 116.078Z" fill="white"/>
<path d="M52.3458 115.082C52.39 115.082 52.4258 115.04 52.4258 114.988C52.4258 114.937 52.39 114.894 52.3458 114.894C52.3016 114.894 52.2658 114.937 52.2658 114.988C52.2658 115.04 52.3016 115.082 52.3458 115.082Z" fill="white"/>
<path opacity="0.1" d="M52.8732 90.731C52.8732 90.731 52.1024 93.0007 51.1887 93.086C50.2749 93.1713 52.8732 90.731 52.8732 90.731Z" fill="black"/>
<path opacity="0.1" d="M53.0012 94.1883C53.0012 94.1883 51.7854 96.6173 51.4235 96.6424C51.0616 96.6674 53.0012 94.1883 53.0012 94.1883Z" fill="black"/>
<path opacity="0.1" d="M53.63 102.352C53.63 102.352 52.1227 103.279 52.4665 103.355C52.8102 103.432 53.63 102.352 53.63 102.352Z" fill="black"/>
<path opacity="0.1" d="M50.6346 102.352C50.6346 102.352 52.1494 101.626 52.4152 101.626C52.681 101.626 50.6346 102.352 50.6346 102.352Z" fill="black"/>
<path opacity="0.1" d="M58.8905 99.3974C58.8905 99.3974 59.9303 99.0965 59.973 99.3974C60.0157 99.6984 58.8905 99.3974 58.8905 99.3974Z" fill="black"/>
<path opacity="0.1" d="M59.8876 100.877C59.8876 100.877 58.9706 100.9 59.0987 101.253C59.2268 101.607 59.8876 100.877 59.8876 100.877Z" fill="black"/>
<path opacity="0.1" d="M55.719 65.6545C54.9312 65.2921 53.5574 64.5936 52.9372 63.8826C52.317 63.1716 51.179 62.9371 50.5129 62.8518C50.5887 62.5747 50.5791 62.2248 50.5919 61.9301C50.6133 61.4285 51.0392 61.4285 51.0392 61.4285C52.2551 61.653 55.1116 63.7572 55.1116 63.7572C55.0049 64.2325 55.687 65.5855 55.687 65.5855C55.6988 65.6081 55.7084 65.6307 55.719 65.6545Z" fill="black"/>
<path d="M55.719 65.504C54.9312 65.1416 53.5574 64.4431 52.9372 63.7334C52.317 63.0236 51.179 62.7866 50.5129 62.7013C50.5887 62.4242 50.5791 62.0743 50.5919 61.7796C50.6133 61.278 51.0392 61.278 51.0392 61.278C52.2551 61.5025 55.1116 63.6067 55.1116 63.6067C55.0049 64.082 55.687 65.4351 55.687 65.4351C55.6988 65.4576 55.7084 65.4802 55.719 65.504Z" fill="#6C63FF"/>
<path opacity="0.1" d="M57.173 81.6657C55.9069 80.7001 54.1317 79.0624 54.1317 78.9608C54.1317 78.8354 53.4058 77.9087 53.4058 77.9087L51.9775 74.8602L51.5303 73.6062L52.8112 72.0287L55.6048 74.1316L56.3521 75.7343C56.6 75.9409 56.8318 76.173 57.0449 76.4277C57.0449 77.3168 57.0267 78.0466 56.9915 78.2385C56.9253 78.5746 57.0481 80.1584 57.173 81.6657Z" fill="black"/>
<path d="M51.5943 73.3002L51.9775 74.8602L53.472 77.6077C53.472 77.6077 54.1968 78.5344 54.1968 78.6598C54.1968 78.7852 56.8655 81.2143 57.9917 81.8902C59.1179 82.5661 60.5537 83.1216 60.6604 83.6082C60.7672 84.0947 61.4077 87.7263 63.2224 86.5488C65.0371 85.3713 62.7111 82.7166 62.7111 82.7166L61.2166 81.1641C61.2166 81.1641 58.028 78.2335 57.7569 77.2579C57.4857 76.2822 56.4193 75.4295 56.4193 75.4295L55.6721 73.8256L52.8796 71.7227L51.5943 73.3002Z" fill="#FABDBD"/>
<path opacity="0.1" d="M51.0606 65.035C51.0606 65.035 48.4602 66.4383 49.2704 68.6716C50.0806 70.905 51.8495 75.0157 51.8495 75.0157C51.8495 75.0157 51.637 73.5798 52.1056 73.4544C52.5743 73.329 55.7191 73.9448 55.7191 73.9448C55.7191 73.9448 54.8555 72.2769 55.0049 71.3251C55.1544 70.3733 53.8755 64.2086 51.0606 65.035Z" fill="black"/>
<path opacity="0.1" d="M51.3168 64.8106C51.3168 64.8106 48.7164 66.2126 49.5255 68.4384C50.3347 70.6643 52.1056 74.785 52.1056 74.785C52.1056 74.785 51.8921 73.3504 52.3618 73.225C52.8315 73.0996 55.7938 73.7504 55.7938 73.7504C55.7938 73.7504 55.1117 72.0475 55.26 71.0957C55.4084 70.1439 54.1338 63.9829 51.3168 64.8106Z" fill="black"/>
<path d="M51.1887 64.8846C51.1887 64.8846 48.5883 66.2878 49.3985 68.5212C50.2087 70.7546 51.9775 74.8652 51.9775 74.8652C51.9775 74.8652 51.764 73.4306 52.2337 73.3052C52.7034 73.1798 55.6657 73.8307 55.6657 73.8307C55.6657 73.8307 54.9835 72.1277 55.1319 71.1759C55.2803 70.2241 54.0036 64.0582 51.1887 64.8846Z" fill="#6C63FF"/>
<path opacity="0.1" d="M56.3852 56.0237C56.0233 56.1642 55.6379 56.2457 55.3177 56.0338C55.0967 55.8895 54.9302 55.6187 54.6772 55.5622C54.4498 55.5108 54.2171 55.6651 54.0709 55.8757C53.9349 56.0975 53.827 56.3412 53.7506 56.5993C53.5891 57.0502 53.3918 57.4823 53.1614 57.8897C53.0183 58.1405 52.8283 58.4063 52.5721 58.4189C52.2209 58.4377 51.9839 57.9825 51.6445 57.8721C50.815 57.6 51.2943 58.6734 51.416 59.0785C51.5363 59.4783 51.5786 59.9047 51.5399 60.3262C51.5125 60.3337 51.4846 60.3387 51.4566 60.3413C51.0785 59.5699 50.9544 58.6624 51.1078 57.7906C51.2612 56.9189 51.6814 56.1436 52.2888 55.6115C52.8962 55.0793 53.6487 54.8274 54.4036 54.9034C55.1586 54.9794 55.8636 55.378 56.3852 56.0237Z" fill="black"/>
<path d="M51.5868 57.7944C51.9252 57.9047 52.1622 58.3599 52.5134 58.3424C52.7707 58.3286 52.9607 58.064 53.1027 57.8119C53.3332 57.4058 53.5305 56.9751 53.6919 56.5253C53.7683 56.2672 53.8762 56.0235 54.0122 55.8017C54.1595 55.5911 54.3911 55.4368 54.6185 55.4882C54.8661 55.5447 55.0327 55.8155 55.259 55.9598C55.6625 56.2244 56.1642 56.0325 56.5955 55.8344C56.809 55.7391 57.0427 55.6011 57.079 55.3428C57.1047 55.161 57.0161 54.9779 57.0363 54.7948C57.0566 54.6117 57.1719 54.4838 57.2498 54.3333C57.3278 54.1828 57.3726 53.9659 57.2626 53.8442C57.1826 53.7565 57.0577 53.7627 56.9552 53.7188C56.7001 53.6022 56.635 53.1997 56.4076 53.0191C56.1621 52.8247 55.8344 52.9551 55.5376 52.9714C55.1106 52.994 54.7124 52.7633 54.3164 52.5789C53.9204 52.3946 53.4688 52.2529 53.077 52.446C52.8433 52.5626 52.6618 52.7821 52.4632 52.9677C52.0749 53.3269 51.6114 53.5564 51.1214 53.6323C50.8802 53.6699 50.6165 53.6762 50.4265 53.853C50.1874 54.0762 50.1511 54.4875 50.197 54.8424C50.2429 55.1973 50.3496 55.5459 50.3251 55.9021C50.2867 56.4676 49.9269 56.9329 49.8074 57.4821C49.7808 57.5697 49.7717 57.6634 49.7808 57.7557C49.7898 57.8481 49.8168 57.9369 49.8597 58.0151C49.9307 58.0982 50.0125 58.1676 50.102 58.2207C50.2166 58.3084 50.3134 58.4247 50.3855 58.5612C50.4577 58.6977 50.5033 58.8512 50.5194 59.0108C50.5354 59.1725 50.5194 59.3368 50.5407 59.4973C50.5833 59.7428 50.7061 59.959 50.8826 60.0996C51.0591 60.2402 51.2755 60.2941 51.4854 60.2497C51.5237 59.8282 51.4814 59.4019 51.3616 59.002C51.2356 58.5957 50.7574 57.5285 51.5868 57.7944Z" fill="#7C5C5C"/>
<g opacity="0.1">
<path d="M56.5656 53.2022C56.5687 53.2089 56.5725 53.2152 56.5769 53.2208L56.5656 53.2022Z" fill="black"/>
<path d="M57.237 54.312C57.3182 54.1628 57.3609 53.9433 57.2498 53.8229C57.2314 53.8034 57.2105 53.7873 57.1879 53.7753C57.1893 53.886 57.1618 53.9946 57.1089 54.0863C57.0278 54.2355 56.9136 54.3722 56.8954 54.5477C56.8773 54.7233 56.9627 54.9127 56.9381 55.0945C56.9018 55.3541 56.6627 55.4908 56.4546 55.5861C56.0276 55.7829 55.5216 55.9761 55.117 55.7115C54.8971 55.566 54.7306 55.2964 54.4829 55.24C54.2556 55.1885 54.0228 55.3428 53.8766 55.5535C53.7404 55.775 53.6326 56.0188 53.5564 56.277C53.3945 56.7277 53.1972 57.1597 52.9671 57.5674C52.8241 57.8182 52.6351 58.084 52.3779 58.0966C52.0267 58.1141 51.7897 57.6602 51.4502 57.5498C50.6208 57.2777 51.1001 58.3512 51.2218 58.7562C51.3424 59.1581 51.3847 59.5866 51.3456 60.0102C51.2072 60.0401 51.0645 60.0271 50.9316 59.9726C50.7987 59.918 50.6802 59.8238 50.5877 59.6992C50.6649 59.8901 50.7932 60.046 50.9531 60.1429C51.1129 60.2399 51.2955 60.2726 51.4726 60.2359C51.5118 59.8145 51.4699 59.388 51.3499 58.9882C51.2282 58.5831 50.7489 57.5097 51.5783 57.7806C51.9178 57.8922 52.1548 58.3461 52.506 58.3286C52.7622 58.316 52.9522 58.0502 53.0941 57.7994C53.3248 57.3914 53.5224 56.959 53.6845 56.5078C53.7609 56.2497 53.8687 56.0059 54.0047 55.7842C54.0734 55.674 54.1656 55.5871 54.2721 55.5323C54.3786 55.4774 54.4955 55.4566 54.611 55.4719C54.8587 55.5284 55.0252 55.798 55.2451 55.9422C55.6497 56.208 56.1514 56.0149 56.5827 55.8168C56.7962 55.7215 57.0299 55.5848 57.0652 55.3252C57.0908 55.1434 57.0022 54.9603 57.0235 54.7785C57.0449 54.5966 57.1559 54.4612 57.237 54.312Z" fill="black"/>
<path d="M49.9621 57.9699C49.9034 57.9248 49.8394 57.8859 49.7839 57.8358C49.7956 57.8917 49.8171 57.9442 49.8469 57.99C49.9183 58.0731 50.0005 58.1425 50.0902 58.1957C50.1657 58.2537 50.2334 58.3247 50.2909 58.4063C50.2164 58.2291 50.1029 58.0784 49.9621 57.9699Z" fill="black"/>
</g>
<path opacity="0.1" d="M57.4783 57.8571C57.4783 57.8571 56.6083 57.1398 56.0906 57.9135H55.7788C55.4671 56.8614 53.9246 57.3492 53.9246 57.3492L51.8217 57.753L51.8612 57.9135L53.9246 57.7154C53.9246 57.7154 53.9727 58.7023 54.2524 59.022C54.532 59.3418 55.1394 59.1625 55.1394 59.1625C55.5066 59.1073 55.6828 58.4301 55.7479 58.0966L56.0489 58.1166C55.9945 58.4565 55.9582 59.1199 56.4503 59.3506C57.1228 59.6603 57.3363 58.9556 57.3363 58.9556C57.3363 58.9556 57.5583 58.0452 57.4783 57.8571Z" fill="black"/>
<path d="M57.4783 57.7793C57.4783 57.7793 56.6083 57.062 56.0906 57.8358H55.7789C55.4671 56.7837 53.9246 57.2715 53.9246 57.2715L51.8217 57.6765L51.8612 57.8358L53.9246 57.6389C53.9246 57.6389 53.9727 58.6245 54.2524 58.9443C54.532 59.2641 55.1394 59.0848 55.1394 59.0848C55.5066 59.0296 55.6828 58.3524 55.7479 58.0189L56.0489 58.0389C55.9945 58.3788 55.9582 59.0421 56.4503 59.2729C57.1217 59.5826 57.3299 58.8779 57.3299 58.8779C57.3299 58.8779 57.5583 57.9699 57.4783 57.7793Z" fill="#3F3D56"/>
<path d="M63.7668 115.84C63.4583 115.824 61.7738 116.66 61.7738 116.66C61.7738 116.66 61.2401 117.01 59.8769 117.235C58.9866 117.382 58.8681 116.878 58.8927 116.511C58.901 116.39 58.9237 116.272 58.9599 116.159V113.935C58.9599 113.935 61.7354 111.945 61.9489 111.82C61.9758 111.806 62.0049 111.799 62.0343 111.798C62.3769 111.782 63.359 112.192 63.8896 112.632C64.4756 113.12 65.2218 112.822 65.2218 112.822C65.2218 112.822 66.6693 111.451 67.0504 112.454C67.0729 112.512 67.0904 112.572 67.1027 112.634C67.3813 113.959 64.0764 115.851 63.7668 115.84Z" fill="#3F3D56"/>
<path opacity="0.1" d="M58.9599 114.469V113.935C58.9599 113.935 61.7354 111.945 61.9489 111.82C61.9758 111.806 62.0049 111.798 62.0343 111.798C62.1613 111.953 62.2755 112.091 62.3438 112.175C62.5456 112.413 60.7042 115.126 58.9599 114.469Z" fill="black"/>
<path d="M58.534 114.084L58.2789 112.736C58.2789 112.736 58.2789 111.571 57.9266 111.346C57.5743 111.12 56.6147 103.3 56.6147 103.3C56.6147 103.3 56.6467 101.572 56.3905 101.346C56.1343 101.12 56.3905 100.872 56.3905 100.872C56.3895 100.623 56.3512 100.377 56.2774 100.144C56.1934 99.89 56.135 99.6256 56.1034 99.356C56.1034 99.356 56.2315 98.7917 56.1034 98.6425C56.0137 98.5372 56.1279 98.3403 55.9187 97.9465C55.7837 97.7126 55.6196 97.5038 55.4319 97.3271C54.7071 96.6073 55.4223 88.4537 55.6187 86.3582C55.6486 86.046 55.6668 85.8692 55.6668 85.8692H57.3747L57.5882 86.7708L57.9287 88.4374C57.9287 88.4374 58.1529 88.6117 58.1529 88.8374C58.1529 89.0631 59.4958 93.8334 59.4958 93.8334C59.5943 94.0255 59.68 94.2263 59.752 94.4341C59.784 94.5845 60.0722 94.8479 60.0722 94.8479C60.0173 94.9894 59.9889 95.1432 59.9889 95.2987C59.9889 95.4542 60.0173 95.608 60.0722 95.7495C60.2633 96.1997 60.8077 98.0782 60.6156 98.9798C60.4234 99.8815 60.1993 99.9567 60.1993 99.9567C60.1993 99.9567 60.0082 100.624 60.3274 100.872C60.6466 101.12 60.4234 101.572 60.4234 101.572L60.8398 105.78C60.8398 105.78 60.8077 107.661 61.287 108.335C61.7663 109.008 61.8304 110.626 61.8304 110.626L61.4696 110.806L61.4045 110.84L61.3831 110.852C61.3831 110.852 62.1186 111.753 62.3438 112.017C62.5691 112.28 60.3882 115.439 58.534 114.084Z" fill="#65617D"/>
<path opacity="0.1" d="M62.3396 112.02C62.1464 112.7 60.2046 115.155 58.534 113.935L58.2789 112.587C58.7358 112.152 60.1608 110.882 61.4013 110.694L61.3799 110.705L61.4664 110.81L61.4013 110.844L61.3799 110.855C61.3799 110.855 62.1154 111.757 62.3396 112.02Z" fill="black"/>
<path d="M58.534 114.084L58.2789 112.736C58.7358 112.301 60.1608 111.031 61.4013 110.843L61.3799 110.854C61.3799 110.854 62.1154 111.756 62.3406 112.019C62.5659 112.282 60.3882 115.439 58.534 114.084Z" fill="#65617D"/>
<path d="M63.3515 113.008C63.3957 113.008 63.4315 112.966 63.4315 112.914C63.4315 112.862 63.3957 112.82 63.3515 112.82C63.3073 112.82 63.2715 112.862 63.2715 112.914C63.2715 112.966 63.3073 113.008 63.3515 113.008Z" fill="white"/>
<path d="M62.8295 112.916C62.8737 112.916 62.9095 112.873 62.9095 112.822C62.9095 112.77 62.8737 112.728 62.8295 112.728C62.7853 112.728 62.7495 112.77 62.7495 112.822C62.7495 112.873 62.7853 112.916 62.8295 112.916Z" fill="white"/>
<path d="M63.7999 113.102C63.8441 113.102 63.8799 113.06 63.8799 113.008C63.8799 112.957 63.8441 112.914 63.7999 112.914C63.7557 112.914 63.7198 112.957 63.7198 113.008C63.7198 113.06 63.7557 113.102 63.7999 113.102Z" fill="white"/>
<path d="M62.2755 112.822C62.3197 112.822 62.3555 112.779 62.3555 112.727C62.3555 112.676 62.3197 112.633 62.2755 112.633C62.2313 112.633 62.1955 112.676 62.1955 112.727C62.1955 112.779 62.2313 112.822 62.2755 112.822Z" fill="white"/>
<path opacity="0.1" d="M63.7668 115.84C63.4583 115.824 61.7738 116.66 61.7738 116.66C61.7738 116.66 61.2401 117.01 59.8769 117.234C58.9866 117.382 58.8681 116.878 58.8927 116.511C59.1181 116.631 59.3724 116.652 59.61 116.571C60.2174 116.384 62.3182 115.989 62.3182 115.989C62.3182 115.989 63.7059 115.395 63.7465 115.056L67.0504 112.454C67.0729 112.512 67.0904 112.572 67.1027 112.633C67.3813 113.959 64.0764 115.851 63.7668 115.84Z" fill="black"/>
<path d="M62.2083 86.3532H61.4408V115.317H62.2083V86.3532Z" fill="#1E1E1E"/>
<path d="M62.1496 86.6842C62.1743 86.3941 62.2867 86.1239 62.4664 85.9227C62.6461 85.7215 62.8811 85.6026 63.1291 85.5874C63.377 85.5722 63.6213 85.6619 63.8178 85.8401C64.0143 86.0183 64.1499 86.2733 64.2002 86.5588C64.2908 86.6286 64.3759 86.708 64.4543 86.7959C64.4953 86.8405 64.5471 86.8691 64.6025 86.8779C64.6579 86.8868 64.7143 86.8753 64.764 86.8452C64.8136 86.815 64.8542 86.7677 64.8802 86.7095C64.9061 86.6513 64.9162 86.5851 64.909 86.52C64.9084 86.5129 64.9084 86.5057 64.909 86.4987C64.8738 86.2076 64.7856 85.9289 64.6505 85.6815C64.5155 85.434 64.3366 85.2237 64.1261 85.0646C63.9157 84.9056 63.6786 84.8017 63.4309 84.7599C63.1832 84.7182 62.9307 84.7395 62.6907 84.8226C62.4506 84.9056 62.2286 85.0484 62.0398 85.2412C61.8509 85.434 61.6996 85.6724 61.5961 85.94C61.4926 86.2076 61.4393 86.4983 61.44 86.7923C61.4406 87.0862 61.4951 87.3766 61.5998 87.6436C61.7007 87.2684 61.8916 86.9353 62.1496 86.6842Z" fill="#1E1E1E"/>
<path d="M62.4954 114.285H61.2006V116.408H62.4954V114.285Z" fill="#1E1E1E"/>
<path d="M55.7084 60.7024C55.4406 61.1099 55.2248 61.5611 55.0679 62.0417C54.5598 63.6167 54.9409 64.8858 54.9409 64.8858C54.9409 64.8858 50.3144 63.6832 50.7627 63.0825C51.0339 62.7176 51.2581 61.3144 51.3926 60.266C51.4801 59.5826 51.5303 59.0496 51.5303 59.0496C51.5303 59.0496 57.094 58.5744 55.7084 60.7024Z" fill="#FABDBD"/>
<path d="M57.0374 117.094C56.9803 117.463 56.8157 117.797 56.572 118.038C56.2197 118.388 52.8625 118.514 52.1804 118.214C51.4982 117.914 49.3238 117.8 48.7794 117.775C48.235 117.75 48.0236 117.162 47.9051 116.873C47.872 116.791 47.8966 116.609 47.9521 116.39C48.0876 115.855 48.4036 115.1 48.4709 115.02C48.5221 114.96 48.5712 114.714 48.6043 114.498C48.6331 114.311 48.6523 114.147 48.6523 114.147C50.1116 115.316 52.0309 113.329 52.0309 113.329C52.1028 113.284 52.1849 113.267 52.2658 113.279C52.633 113.332 53.0333 113.898 53.0333 114.147C53.0333 114.452 54.0452 115.025 54.0452 115.025C54.3335 115.414 55.6123 116.14 55.6123 116.14C55.6123 116.14 56.4866 116.165 56.8709 116.552C56.9353 116.619 56.9843 116.703 57.0134 116.798C57.0426 116.893 57.0508 116.995 57.0374 117.094Z" fill="#3F3D56"/>
<path opacity="0.1" d="M57.0374 117.094C56.9803 117.463 56.8157 117.797 56.572 118.038C56.2197 118.388 52.8625 118.514 52.1804 118.214C51.4982 117.914 49.3238 117.8 48.7794 117.775C48.235 117.75 48.0236 117.162 47.9051 116.873C47.872 116.791 47.8966 116.609 47.9521 116.391C48.4312 116.529 48.9034 116.698 49.3665 116.898C50.0486 117.212 51.4662 117.662 51.7149 117.525C51.7107 117.529 55.0743 118.631 57.0374 117.094Z" fill="black"/>
<path opacity="0.1" d="M55.9187 97.9503C55.7837 97.7163 55.6196 97.5075 55.4319 97.3308C54.7071 96.611 55.4223 88.4574 55.6187 86.362C56.4567 86.3068 57.0438 86.3256 57.094 86.4736C57.2669 86.9814 56.1471 96.1169 55.9187 97.9503Z" fill="black"/>
<path opacity="0.1" d="M52.2658 113.284V113.708C49.9173 116.538 48.9779 115.57 48.6043 114.501C48.6331 114.314 48.6523 114.15 48.6523 114.15C50.1116 115.318 52.0309 113.332 52.0309 113.332C52.1031 113.288 52.1852 113.271 52.2658 113.284Z" fill="black"/>
<path d="M56.9093 87.1357C56.7705 89.6538 55.6902 98.2701 55.6902 98.2701C55.6902 98.2701 55.0828 101.425 54.9547 101.538C54.8266 101.651 54.0282 102.29 54.0282 102.29C54.0282 102.29 53.9961 103.756 53.7399 104.171C53.4837 104.587 53.3877 105.637 53.3877 105.637C53.3877 105.637 52.9724 107.74 52.8443 108.792C52.7162 109.845 52.269 111.272 52.269 111.272V113.564C49.3163 117.122 48.5893 114.678 48.4185 113.574C48.3938 113.421 48.3767 113.267 48.3673 113.113L50.0304 101.242C50.0304 101.242 50.3816 100.678 50.3176 100.378C50.2535 100.078 50.4457 99.7009 50.4457 99.7009L50.4404 99.025C50.4404 99.025 50.83 98.4243 50.4404 98.0857C50.0507 97.7471 50.4404 95.1927 50.4404 95.1927C50.4404 95.1927 49.9984 93.728 50.2269 93.3117C50.4553 92.8954 50.2269 92.222 50.3859 91.8458C50.545 91.4696 50.3859 91.8458 49.8105 90.8313C49.5095 90.3021 49.2533 89.3428 49.0761 88.5477C48.9139 87.8166 48.8189 87.2247 48.8189 87.2247C48.8189 87.2247 56.7182 85.9105 56.9104 86.4723C56.9347 86.6926 56.9344 86.9156 56.9093 87.1357Z" fill="#65617D"/>
<path opacity="0.1" d="M55.7084 60.7024C55.4406 61.1099 55.2248 61.5611 55.0679 62.0417C54.7651 62.1545 54.4493 62.2116 54.1317 62.211C52.9938 62.211 52.3629 61.2266 51.826 60.1519C51.8014 60.103 51.415 60.3162 51.3926 60.266C51.4801 59.5826 51.5303 59.0496 51.5303 59.0496C51.5303 59.0496 57.094 58.5744 55.7084 60.7024Z" fill="black"/>
<path d="M57.2221 58.5054C57.2231 59.352 56.9726 60.1726 56.5138 60.8255C56.055 61.4784 55.4167 61.9229 54.7089 62.0822C54.0011 62.2415 53.2681 62.1057 52.6364 61.6982C52.0047 61.2907 51.5137 60.637 51.2483 59.8499C50.9829 59.0628 50.9595 58.1915 51.1823 57.3864C51.4051 56.5812 51.86 55.8926 52.4687 55.4392C53.0773 54.9859 53.8016 54.7962 54.5165 54.9029C55.2315 55.0096 55.8923 55.406 56.3852 56.0237C56.9223 56.6961 57.2215 57.5833 57.2221 58.5054Z" fill="#FABDBD"/>
<path opacity="0.1" d="M56.9093 87.1357C55.8653 87.3514 53.9684 87.774 53.8136 88.0273C53.6001 88.3772 51.9989 88.4775 51.0381 88.628C50.4862 88.7145 49.6771 88.643 49.0676 88.5477C48.9053 87.8166 48.8103 87.2247 48.8103 87.2247C48.8103 87.2247 56.7097 85.9105 56.9018 86.4723C56.929 86.6921 56.9315 86.9151 56.9093 87.1357Z" fill="black"/>
<path d="M57.585 86.7746C57.585 86.7746 54.0271 87.4505 53.8136 87.8016C53.6001 88.1527 51.9989 88.2518 51.0382 88.4023C50.0774 88.5527 48.3524 88.2267 48.2243 88.1264C47.477 87.5408 47.84 80.6638 48.1602 79.811C48.4805 78.9583 48.3737 74.2018 48.0748 72.2983C47.7759 70.3947 48.2243 68.0158 48.2243 68.0158C48.2243 68.0158 48.6715 66.338 48.5872 65.9868C48.5029 65.6357 49.0142 64.8858 49.0142 64.8858C49.0142 64.8858 49.8031 63.3572 50.2077 63.1302C50.2818 63.0884 50.3474 63.0283 50.4001 62.9541C50.4528 62.8799 50.4912 62.7933 50.513 62.7001C50.5887 62.4229 50.5791 62.0731 50.5919 61.7784C50.6133 61.2768 51.0392 61.2768 51.0392 61.2768C52.2551 61.5012 55.1117 63.6055 55.1117 63.6055C55.0049 64.0807 55.687 65.4338 55.687 65.4338C55.6988 65.4551 55.7084 65.4777 55.7191 65.5015C56.4663 67.1556 57.0096 72.2205 57.0096 72.2205C57.0096 72.2205 57.047 74.6395 57.0406 76.4202C57.0406 77.3093 57.0225 78.0391 56.9872 78.231C56.9253 78.5721 57.0481 80.1559 57.173 81.6632C57.2584 82.7053 57.3459 83.7097 57.3726 84.2414C57.443 85.5469 57.585 86.7746 57.585 86.7746Z" fill="#5755DF"/>
<path opacity="0.1" d="M54.4722 79.8625C54.4722 79.8625 53.5115 82.5674 53.7688 82.9674C54.026 83.3674 54.4722 79.8625 54.4722 79.8625Z" fill="black"/>
<path opacity="0.1" d="M55.6657 81.1641C55.6657 81.1641 54.579 83.1705 54.9836 83.5681C55.3881 83.9656 55.6657 81.1641 55.6657 81.1641Z" fill="black"/>
<path opacity="0.1" d="M52.2657 112.809V113.485C49.3131 117.043 48.5861 114.599 48.4153 113.495C48.9523 114.037 50.1842 114.711 52.2657 112.809Z" fill="black"/>
<path d="M52.2657 112.884V113.56C49.3131 117.118 48.5861 114.674 48.4153 113.57C48.9523 114.112 50.1842 114.787 52.2657 112.884Z" fill="#65617D"/>
<path d="M51.9145 114.807C51.9587 114.807 51.9946 114.765 51.9946 114.713C51.9946 114.661 51.9587 114.619 51.9145 114.619C51.8703 114.619 51.8345 114.661 51.8345 114.713C51.8345 114.765 51.8703 114.807 51.9145 114.807Z" fill="white"/>
<path d="M53.2243 115.751C53.2685 115.751 53.3044 115.709 53.3044 115.657C53.3044 115.605 53.2685 115.563 53.2243 115.563C53.1801 115.563 53.1443 115.605 53.1443 115.657C53.1443 115.709 53.1801 115.751 53.2243 115.751Z" fill="white"/>
<path d="M52.7226 115.363C52.7668 115.363 52.8026 115.321 52.8026 115.269C52.8026 115.217 52.7668 115.175 52.7226 115.175C52.6784 115.175 52.6426 115.217 52.6426 115.269C52.6426 115.321 52.6784 115.363 52.7226 115.363Z" fill="white"/>
<path d="M53.63 116.078C53.6742 116.078 53.71 116.036 53.71 115.984C53.71 115.932 53.6742 115.89 53.63 115.89C53.5858 115.89 53.5499 115.932 53.5499 115.984C53.5499 116.036 53.5858 116.078 53.63 116.078Z" fill="white"/>
<path d="M52.3458 115.082C52.39 115.082 52.4258 115.04 52.4258 114.988C52.4258 114.937 52.39 114.894 52.3458 114.894C52.3016 114.894 52.2658 114.937 52.2658 114.988C52.2658 115.04 52.3016 115.082 52.3458 115.082Z" fill="white"/>
<path opacity="0.1" d="M52.8732 90.731C52.8732 90.731 52.1024 93.0007 51.1887 93.086C50.2749 93.1713 52.8732 90.731 52.8732 90.731Z" fill="black"/>
<path opacity="0.1" d="M53.0012 94.1883C53.0012 94.1883 51.7854 96.6173 51.4235 96.6424C51.0616 96.6674 53.0012 94.1883 53.0012 94.1883Z" fill="black"/>
<path opacity="0.1" d="M53.63 102.352C53.63 102.352 52.1227 103.279 52.4665 103.355C52.8102 103.432 53.63 102.352 53.63 102.352Z" fill="black"/>
<path opacity="0.1" d="M50.6346 102.352C50.6346 102.352 52.1494 101.626 52.4152 101.626C52.681 101.626 50.6346 102.352 50.6346 102.352Z" fill="black"/>
<path opacity="0.1" d="M58.8905 99.3974C58.8905 99.3974 59.9303 99.0965 59.973 99.3974C60.0157 99.6984 58.8905 99.3974 58.8905 99.3974Z" fill="black"/>
<path opacity="0.1" d="M59.8876 100.877C59.8876 100.877 58.9706 100.9 59.0987 101.253C59.2268 101.607 59.8876 100.877 59.8876 100.877Z" fill="black"/>
<path opacity="0.1" d="M55.719 65.6545C54.9312 65.2921 53.5574 64.5936 52.9372 63.8826C52.317 63.1716 51.179 62.9371 50.5129 62.8518C50.5887 62.5747 50.5791 62.2248 50.5919 61.9301C50.6133 61.4285 51.0392 61.4285 51.0392 61.4285C52.2551 61.653 55.1116 63.7572 55.1116 63.7572C55.0049 64.2325 55.687 65.5855 55.687 65.5855C55.6988 65.6081 55.7084 65.6307 55.719 65.6545Z" fill="black"/>
<path d="M55.719 65.504C54.9312 65.1416 53.5574 64.4431 52.9372 63.7334C52.317 63.0236 51.179 62.7866 50.5129 62.7013C50.5887 62.4242 50.5791 62.0743 50.5919 61.7796C50.6133 61.278 51.0392 61.278 51.0392 61.278C52.2551 61.5025 55.1116 63.6067 55.1116 63.6067C55.0049 64.082 55.687 65.4351 55.687 65.4351C55.6988 65.4576 55.7084 65.4802 55.719 65.504Z" fill="#5755DF"/>
<path opacity="0.1" d="M57.173 81.6657C55.9069 80.7001 54.1317 79.0624 54.1317 78.9608C54.1317 78.8354 53.4058 77.9087 53.4058 77.9087L51.9775 74.8602L51.5303 73.6062L52.8112 72.0287L55.6048 74.1316L56.3521 75.7343C56.6 75.9409 56.8318 76.173 57.0449 76.4277C57.0449 77.3168 57.0267 78.0466 56.9915 78.2385C56.9253 78.5746 57.0481 80.1584 57.173 81.6657Z" fill="black"/>
<path d="M51.5943 73.3002L51.9775 74.8602L53.472 77.6077C53.472 77.6077 54.1968 78.5344 54.1968 78.6598C54.1968 78.7852 56.8655 81.2143 57.9917 81.8902C59.1179 82.5661 60.5537 83.1216 60.6604 83.6082C60.7672 84.0947 61.4077 87.7263 63.2224 86.5488C65.0371 85.3713 62.7111 82.7166 62.7111 82.7166L61.2166 81.1641C61.2166 81.1641 58.028 78.2335 57.7569 77.2579C57.4857 76.2822 56.4193 75.4295 56.4193 75.4295L55.6721 73.8256L52.8796 71.7227L51.5943 73.3002Z" fill="#FABDBD"/>
<path opacity="0.1" d="M51.0606 65.035C51.0606 65.035 48.4602 66.4383 49.2704 68.6716C50.0806 70.905 51.8495 75.0157 51.8495 75.0157C51.8495 75.0157 51.637 73.5798 52.1056 73.4544C52.5743 73.329 55.7191 73.9448 55.7191 73.9448C55.7191 73.9448 54.8555 72.2769 55.0049 71.3251C55.1544 70.3733 53.8755 64.2086 51.0606 65.035Z" fill="black"/>
<path opacity="0.1" d="M51.3168 64.8106C51.3168 64.8106 48.7164 66.2126 49.5255 68.4384C50.3347 70.6643 52.1056 74.785 52.1056 74.785C52.1056 74.785 51.8921 73.3504 52.3618 73.225C52.8315 73.0996 55.7938 73.7504 55.7938 73.7504C55.7938 73.7504 55.1117 72.0475 55.26 71.0957C55.4084 70.1439 54.1338 63.9829 51.3168 64.8106Z" fill="black"/>
<path d="M51.1887 64.8846C51.1887 64.8846 48.5883 66.2878 49.3985 68.5212C50.2087 70.7546 51.9775 74.8652 51.9775 74.8652C51.9775 74.8652 51.764 73.4306 52.2337 73.3052C52.7034 73.1798 55.6657 73.8307 55.6657 73.8307C55.6657 73.8307 54.9835 72.1277 55.1319 71.1759C55.2803 70.2241 54.0036 64.0582 51.1887 64.8846Z" fill="#5755DF"/>
<path opacity="0.1" d="M56.3852 56.0237C56.0233 56.1642 55.6379 56.2457 55.3177 56.0338C55.0967 55.8895 54.9302 55.6187 54.6772 55.5622C54.4498 55.5108 54.2171 55.6651 54.0709 55.8757C53.9349 56.0975 53.827 56.3412 53.7506 56.5993C53.5891 57.0502 53.3918 57.4823 53.1614 57.8897C53.0183 58.1405 52.8283 58.4063 52.5721 58.4189C52.2209 58.4377 51.9839 57.9825 51.6445 57.8721C50.815 57.6 51.2943 58.6734 51.416 59.0785C51.5363 59.4783 51.5786 59.9047 51.5399 60.3262C51.5125 60.3337 51.4846 60.3387 51.4566 60.3413C51.0785 59.5699 50.9544 58.6624 51.1078 57.7906C51.2612 56.9189 51.6814 56.1436 52.2888 55.6115C52.8962 55.0793 53.6487 54.8274 54.4036 54.9034C55.1586 54.9794 55.8636 55.378 56.3852 56.0237Z" fill="black"/>
<path d="M51.5868 57.7944C51.9252 57.9047 52.1622 58.3599 52.5134 58.3424C52.7707 58.3286 52.9607 58.064 53.1027 57.8119C53.3332 57.4058 53.5305 56.9751 53.6919 56.5253C53.7683 56.2672 53.8762 56.0235 54.0122 55.8017C54.1595 55.5911 54.3911 55.4368 54.6185 55.4882C54.8661 55.5447 55.0327 55.8155 55.259 55.9598C55.6625 56.2244 56.1642 56.0325 56.5955 55.8344C56.809 55.7391 57.0427 55.6011 57.079 55.3428C57.1047 55.161 57.0161 54.9779 57.0363 54.7948C57.0566 54.6117 57.1719 54.4838 57.2498 54.3333C57.3278 54.1828 57.3726 53.9659 57.2626 53.8442C57.1826 53.7565 57.0577 53.7627 56.9552 53.7188C56.7001 53.6022 56.635 53.1997 56.4076 53.0191C56.1621 52.8247 55.8344 52.9551 55.5376 52.9714C55.1106 52.994 54.7124 52.7633 54.3164 52.5789C53.9204 52.3946 53.4688 52.2529 53.077 52.446C52.8433 52.5626 52.6618 52.7821 52.4632 52.9677C52.0749 53.3269 51.6114 53.5564 51.1214 53.6323C50.8802 53.6699 50.6165 53.6762 50.4265 53.853C50.1874 54.0762 50.1511 54.4875 50.197 54.8424C50.2429 55.1973 50.3496 55.5459 50.3251 55.9021C50.2867 56.4676 49.9269 56.9329 49.8074 57.4821C49.7808 57.5697 49.7717 57.6634 49.7808 57.7557C49.7898 57.8481 49.8168 57.9369 49.8597 58.0151C49.9307 58.0982 50.0125 58.1676 50.102 58.2207C50.2166 58.3084 50.3134 58.4247 50.3855 58.5612C50.4577 58.6977 50.5033 58.8512 50.5194 59.0108C50.5354 59.1725 50.5194 59.3368 50.5407 59.4973C50.5833 59.7428 50.7061 59.959 50.8826 60.0996C51.0591 60.2402 51.2755 60.2941 51.4854 60.2497C51.5237 59.8282 51.4814 59.4019 51.3616 59.002C51.2356 58.5957 50.7574 57.5285 51.5868 57.7944Z" fill="#7C5C5C"/>
<g opacity="0.1">
<path d="M56.5656 53.2022C56.5687 53.2089 56.5725 53.2152 56.5769 53.2208L56.5656 53.2022Z" fill="black"/>
<path d="M57.237 54.312C57.3182 54.1628 57.3609 53.9433 57.2498 53.8229C57.2314 53.8034 57.2105 53.7873 57.1879 53.7753C57.1893 53.886 57.1618 53.9946 57.1089 54.0863C57.0278 54.2355 56.9136 54.3722 56.8954 54.5477C56.8773 54.7233 56.9627 54.9127 56.9381 55.0945C56.9018 55.3541 56.6627 55.4908 56.4546 55.5861C56.0276 55.7829 55.5216 55.9761 55.117 55.7115C54.8971 55.566 54.7306 55.2964 54.4829 55.24C54.2556 55.1885 54.0228 55.3428 53.8766 55.5535C53.7404 55.775 53.6326 56.0188 53.5564 56.277C53.3945 56.7277 53.1972 57.1597 52.9671 57.5674C52.8241 57.8182 52.6351 58.084 52.3779 58.0966C52.0267 58.1141 51.7897 57.6602 51.4502 57.5498C50.6208 57.2777 51.1001 58.3512 51.2218 58.7562C51.3424 59.1581 51.3847 59.5866 51.3456 60.0102C51.2072 60.0401 51.0645 60.0271 50.9316 59.9726C50.7987 59.918 50.6802 59.8238 50.5877 59.6992C50.6649 59.8901 50.7932 60.046 50.9531 60.1429C51.1129 60.2399 51.2955 60.2726 51.4726 60.2359C51.5118 59.8145 51.4699 59.388 51.3499 58.9882C51.2282 58.5831 50.7489 57.5097 51.5783 57.7806C51.9178 57.8922 52.1548 58.3461 52.506 58.3286C52.7622 58.316 52.9522 58.0502 53.0941 57.7994C53.3248 57.3914 53.5224 56.959 53.6845 56.5078C53.7609 56.2497 53.8687 56.0059 54.0047 55.7842C54.0734 55.674 54.1656 55.5871 54.2721 55.5323C54.3786 55.4774 54.4955 55.4566 54.611 55.4719C54.8587 55.5284 55.0252 55.798 55.2451 55.9422C55.6497 56.208 56.1514 56.0149 56.5827 55.8168C56.7962 55.7215 57.0299 55.5848 57.0652 55.3252C57.0908 55.1434 57.0022 54.9603 57.0235 54.7785C57.0449 54.5966 57.1559 54.4612 57.237 54.312Z" fill="black"/>
<path d="M49.9621 57.9699C49.9034 57.9248 49.8394 57.8859 49.7839 57.8358C49.7956 57.8917 49.8171 57.9442 49.8469 57.99C49.9183 58.0731 50.0005 58.1425 50.0902 58.1957C50.1657 58.2537 50.2334 58.3247 50.2909 58.4063C50.2164 58.2291 50.1029 58.0784 49.9621 57.9699Z" fill="black"/>
</g>
<path opacity="0.1" d="M57.4783 57.8571C57.4783 57.8571 56.6083 57.1398 56.0906 57.9135H55.7788C55.4671 56.8614 53.9246 57.3492 53.9246 57.3492L51.8217 57.753L51.8612 57.9135L53.9246 57.7154C53.9246 57.7154 53.9727 58.7023 54.2524 59.022C54.532 59.3418 55.1394 59.1625 55.1394 59.1625C55.5066 59.1073 55.6828 58.4301 55.7479 58.0966L56.0489 58.1166C55.9945 58.4565 55.9582 59.1199 56.4503 59.3506C57.1228 59.6603 57.3363 58.9556 57.3363 58.9556C57.3363 58.9556 57.5583 58.0452 57.4783 57.8571Z" fill="black"/>
<path d="M57.4783 57.7793C57.4783 57.7793 56.6083 57.062 56.0906 57.8358H55.7789C55.4671 56.7837 53.9246 57.2715 53.9246 57.2715L51.8217 57.6765L51.8612 57.8358L53.9246 57.6389C53.9246 57.6389 53.9727 58.6245 54.2524 58.9443C54.532 59.2641 55.1394 59.0848 55.1394 59.0848C55.5066 59.0296 55.6828 58.3524 55.7479 58.0189L56.0489 58.0389C55.9945 58.3788 55.9582 59.0421 56.4503 59.2729C57.1217 59.5826 57.3299 58.8779 57.3299 58.8779C57.3299 58.8779 57.5583 57.9699 57.4783 57.7793Z" fill="#3F3D56"/>
<path d="M239.217 115.181L237.661 115.034L237.522 109.313L239.819 109.53L239.217 115.181Z" fill="#9E616A"/>
<path d="M239.463 116.638L234.445 116.165L234.452 116.105C234.504 115.617 234.759 115.169 235.162 114.859C235.565 114.549 236.082 114.402 236.6 114.451L236.6 114.451L239.665 114.74L239.463 116.638Z" fill="#2F2E41"/>
<path d="M201.235 46.4426C201.365 46.4426 201.47 46.3435 201.47 46.2213C201.47 46.0991 201.365 46 201.235 46C201.105 46 201 46.0991 201 46.2213C201 46.3435 201.105 46.4426 201.235 46.4426Z" fill="white"/>
<path d="M246.317 116.589C243.377 116.589 240.986 112.175 240.986 106.749C240.978 105.22 241.179 103.696 241.584 102.215C241.639 102.017 241.699 101.82 241.762 101.631C242.736 98.6741 244.439 96.9089 246.317 96.9089C249.256 96.9089 251.647 101.323 251.647 106.749C251.647 112.175 249.256 116.589 246.317 116.589ZM246.317 97.1491C244.583 97.1491 242.931 98.8937 242.005 101.702C241.943 101.888 241.885 102.081 241.83 102.275C241.432 103.737 241.234 105.24 241.241 106.748C241.241 112.042 243.518 116.349 246.317 116.349C249.115 116.349 251.392 112.042 251.392 106.749C251.392 101.456 249.115 97.1491 246.317 97.1491Z" fill="#3F3D56"/>
<path d="M239.566 116.768L233.684 116.202L233.707 116.047L239.589 116.612L239.566 116.768Z" fill="#3F3D56"/>
<path d="M247.607 112.58C246.49 112.58 245.648 110.073 245.648 106.749C245.648 103.425 246.49 100.918 247.607 100.918C248.724 100.918 249.566 103.425 249.566 106.749C249.566 110.073 248.724 112.58 247.607 112.58ZM247.607 101.159C246.787 101.159 245.903 103.296 245.903 106.749C245.903 110.202 246.787 112.339 247.607 112.339C248.426 112.339 249.311 110.202 249.311 106.749C249.311 103.296 248.426 101.159 247.607 101.159Z" fill="#3F3D56"/>
<path d="M247.815 108.061C248.206 108.061 248.523 107.473 248.523 106.749C248.523 106.025 248.206 105.437 247.815 105.437C247.424 105.437 247.107 106.025 247.107 106.749C247.107 107.473 247.424 108.061 247.815 108.061Z" fill="#CACACA"/>
<path d="M258.554 116.71C255.523 116.71 253.057 112.226 253.057 106.714C253.05 105.191 253.248 103.674 253.647 102.198C253.707 101.982 253.771 101.773 253.836 101.576C254.838 98.5333 256.602 96.7168 258.554 96.7168C261.585 96.7168 264.051 101.201 264.051 106.714C264.051 112.226 261.585 116.71 258.554 116.71ZM258.554 96.957C256.747 96.957 255.032 98.7541 254.08 101.647C254.015 101.841 253.953 102.046 253.894 102.258C253.5 103.714 253.305 105.211 253.312 106.713C253.312 112.093 255.664 116.47 258.554 116.47C261.444 116.47 263.796 112.093 263.796 106.714C263.796 101.334 261.444 96.957 258.554 96.957Z" fill="#3F3D56"/>
<path d="M259.844 112.544C258.728 112.544 257.885 110.038 257.885 106.714C257.885 103.39 258.728 100.883 259.844 100.883C260.961 100.883 261.803 103.39 261.803 106.714C261.803 110.038 260.961 112.544 259.844 112.544ZM259.844 101.123C259.025 101.123 258.14 103.261 258.14 106.714C258.14 110.167 259.025 112.304 259.844 112.304C260.664 112.304 261.548 110.167 261.548 106.714C261.548 103.261 260.664 101.123 259.844 101.123Z" fill="#3F3D56"/>
<path d="M260.052 108.025C260.443 108.025 260.76 107.438 260.76 106.714C260.76 105.989 260.443 105.402 260.052 105.402C259.662 105.402 259.345 105.989 259.345 106.714C259.345 107.438 259.662 108.025 260.052 108.025Z" fill="#CACACA"/>
<path d="M270.872 116.76H222.275C222.241 116.76 222.208 116.747 222.185 116.725C222.161 116.702 222.147 116.671 222.147 116.64C222.147 116.608 222.161 116.577 222.185 116.555C222.208 116.532 222.241 116.519 222.275 116.519H270.872C270.906 116.519 270.939 116.532 270.963 116.555C270.987 116.577 271 116.608 271 116.64C271 116.671 270.987 116.702 270.963 116.725C270.939 116.747 270.906 116.76 270.872 116.76Z" fill="#CACACA"/>
<path d="M239.958 70.5728C239.891 70.7376 239.863 70.9142 239.876 71.0904C239.889 71.2665 239.943 71.4378 240.033 71.5923C240.124 71.7467 240.25 71.8805 240.402 71.9842C240.554 72.0879 240.728 72.159 240.912 72.1925L241.562 76.4406L243.333 74.9598L242.444 71.1528C242.484 70.8578 242.407 70.5596 242.228 70.3145C242.049 70.0694 241.781 69.8946 241.475 69.8231C241.168 69.7516 240.845 69.7884 240.565 69.9266C240.286 70.0648 240.07 70.2947 239.958 70.5728Z" fill="#9E616A"/>
<path d="M246.275 87.2737L257.68 87.2346V91.4652L246.275 91.8986V87.2737Z" fill="#3F3D56"/>
<path d="M243.676 116.307L242.128 116.097L242.253 110.376L244.537 110.686L243.676 116.307Z" fill="#9E616A"/>
<path d="M243.854 117.774L238.863 117.096L238.872 117.036C238.947 116.551 239.223 116.114 239.639 115.82C240.056 115.527 240.58 115.401 241.095 115.471L241.095 115.471L244.143 115.885L243.854 117.774Z" fill="#2F2E41"/>
<path d="M236.535 101.623L236.369 101.614L236.872 92.996H247.191V93.1527H237.03L236.535 101.623Z" fill="#3F3D56"/>
<path d="M237.624 116.733L237.596 116.888L244.598 118L244.625 117.845L237.624 116.733Z" fill="#3F3D56"/>
<path d="M254.121 101.631C254.059 101.82 254 102.013 253.945 102.21L253.771 102.228L248.356 102.794L235.952 101.619L248.856 100.991L253.958 101.611L254.121 101.631Z" fill="#3F3D56"/>
<path d="M251.285 72.5746C251.285 72.5746 249.482 72.0333 248.323 74.1985C247.164 76.3637 245.361 78.7455 245.361 78.7455L246.391 78.962C246.391 78.962 246.648 77.4464 247.292 77.2298L247.035 79.1785C247.035 79.1785 254.762 81.452 258.239 78.962L258.11 78.2042C258.11 78.2042 258.626 78.3124 258.626 78.962L259.012 78.6372C259.012 78.6372 258.626 77.9877 257.466 77.1216C256.706 76.5531 256.444 75.4716 256.354 74.7955C256.281 74.2192 256.011 73.681 255.583 73.2626C254.813 72.5122 253.41 71.7146 251.285 72.5746Z" fill="#2F2E41"/>
<path d="M244.718 96.193L244.467 97.0368C244.467 97.0368 239.398 95.8792 238.738 98.8724C238.078 101.866 237.172 111.129 237.172 111.129L239.731 111.624L242.162 101.525L252.007 99.503L251.362 94.2716L244.718 96.193Z" fill="#2F2E41"/>
<path d="M248.98 97.5816C248.98 97.5816 242.154 96.249 241.655 99.4629C241.155 102.677 241.904 108.791 241.988 108.948C242.071 109.104 241.655 112.005 241.655 112.005L244.652 112.397C244.652 112.397 246.566 103.853 245.734 101.658L251.366 101.33C253.311 101.216 254.899 99.7702 255.011 97.9389C255.054 97.238 254.867 96.6018 254.225 96.249C252.227 95.1516 248.564 95.1516 248.564 95.1516L248.98 97.5816Z" fill="#2F2E41"/>
<path d="M252.227 80.3947C253.882 80.3947 255.224 79.1313 255.224 77.5727C255.224 76.0142 253.882 74.7508 252.227 74.7508C250.572 74.7508 249.23 76.0142 249.23 77.5727C249.23 79.1313 250.572 80.3947 252.227 80.3947Z" fill="#A0616A"/>
<path d="M249.397 82.0509L247.482 81.8259L246.074 84.9552C246.074 84.9552 244.11 96.445 244.61 96.6018C244.89 96.6949 245.187 96.7349 245.484 96.7194L254.935 97.1826C254.935 97.1826 255.356 95.3925 255.19 94.0599C255.023 92.7273 256.972 85.4317 256.972 85.4317L256.598 82.1003L255.003 82.0726L253.855 81.2319L250.66 81.2225L249.397 82.0509Z" fill="#5755DF"/>
<path d="M247.565 82.2178L247.482 81.7475L245.151 79.0824L242.758 71.6235L240.462 73.9055L242.903 81.1987L246.233 85.1965L247.565 82.2178Z" fill="#5755DF"/>
<path d="M248.29 77.9103C248.29 77.9103 249.32 76.5763 250.222 76.3338C251.123 76.0913 251.252 74.8786 251.252 74.8786C251.252 74.8786 253.57 77.3039 254.987 77.4252C256.404 77.5465 255.116 74.5148 255.116 74.5148L252.54 73.9085L250.093 74.151L248.161 75.3637L248.29 77.9103Z" fill="#2F2E41"/>
<path d="M257.93 96.9965L257.849 93.7798H250.102L249.855 102.405L249.688 102.4L249.94 93.6231H258.01L258.013 93.6989L258.096 96.9911L257.93 96.9965Z" fill="#3F3D56"/>
<path d="M257.763 92.6041H257.597V86.6207L260.284 87.3553L260.237 87.5058L257.763 86.8295V92.6041Z" fill="#3F3D56"/>
<path d="M258.929 86.4899L260.677 87.117L260.344 87.9792L258.929 87.4305V86.4899Z" fill="#3F3D56"/>
<path d="M252.019 93.2311V94.4853H256.979V93.3145L252.019 93.2311Z" fill="#3F3D56"/>
<path d="M239.282 92.6041V93.8583H244.242V92.6874L239.282 92.6041Z" fill="#3F3D56"/>
<path d="M248.356 89.5609H248.316V88.5171C248.316 88.3568 248.248 88.2032 248.128 88.0899C248.007 87.9766 247.844 87.9129 247.674 87.9129H245.325C245.155 87.9129 244.992 87.9766 244.872 88.0899C244.751 88.2032 244.684 88.3568 244.684 88.5171V94.2434C244.684 94.4037 244.751 94.5573 244.872 94.6706C244.992 94.7839 245.155 94.8476 245.325 94.8476H247.674C247.844 94.8476 248.007 94.7839 248.128 94.6706C248.248 94.5573 248.316 94.4037 248.316 94.2434V90.3039H248.356L248.356 89.5609Z" fill="#3F3D56"/>
<path d="M246.52 90.0618C246.737 90.0618 246.913 89.8962 246.913 89.6918C246.913 89.4874 246.737 89.3217 246.52 89.3217C246.303 89.3217 246.127 89.4874 246.127 89.6918C246.127 89.8962 246.303 90.0618 246.52 90.0618Z" fill="#D0CDE1"/>
<path opacity="0.15" d="M255.932 86.0196L255.682 90.4876L252.019 91.1931L255.349 89.9388L255.932 86.0196Z" fill="black"/>
<path d="M247.263 93.9026C247.428 93.9866 247.611 94.0355 247.798 94.0459C247.985 94.0563 248.173 94.0279 248.347 93.9627C248.521 93.8976 248.678 93.7972 248.807 93.6688C248.935 93.5403 249.033 93.3868 249.091 93.2192L253.649 93.1556L252.316 91.3121L248.192 91.6551C247.887 91.5807 247.563 91.6145 247.282 91.75C247.001 91.8855 246.782 92.1134 246.668 92.3904C246.553 92.6674 246.551 92.9744 246.66 93.2531C246.77 93.5318 246.985 93.7629 247.263 93.9026Z" fill="#9E616A"/>
<path d="M255.682 82.6489L256.431 82.1002C256.431 82.1002 257.68 81.4731 257.93 83.668C258.179 85.8628 260.011 93.1528 258.179 93.2312C256.348 93.3095 249.518 93.4826 249.518 93.4826L249.263 91.3207L256.015 90.7228L255.682 82.6489Z" fill="#5755DF"/>
</g>
<defs>
<clipPath id="clip0_5_89">
<rect width="311" height="163" fill="white"/>
</clipPath>
</defs>
</svg>
