<svg width="265" height="113" viewBox="0 0 265 113" fill="none" xmlns="http://www.w3.org/2000/svg">
<ellipse cx="27.5" cy="90" rx="20.5" ry="4" fill="#D9D9D9" fill-opacity="0.6"/>
<mask id="path-2-inside-1_5_2" fill="white">
<path fill-rule="evenodd" clip-rule="evenodd" d="M48.1596 46.579C49.971 43.3559 51 39.6617 51 35.735C51 23.1788 40.4787 13 27.5 13C14.5213 13 4 23.1788 4 35.735C4 39.6957 5.0469 43.4199 6.88761 46.6627L26.6899 89.8147C27.0472 90.5935 28.1545 90.5914 28.5091 89.8113L48.1596 46.579Z"/>
</mask>
<path fill-rule="evenodd" clip-rule="evenodd" d="M48.1596 46.579C49.971 43.3559 51 39.6617 51 35.735C51 23.1788 40.4787 13 27.5 13C14.5213 13 4 23.1788 4 35.735C4 39.6957 5.0469 43.4199 6.88761 46.6627L26.6899 89.8147C27.0472 90.5935 28.1545 90.5914 28.5091 89.8113L48.1596 46.579Z" fill="#5755DF"/>
<path d="M48.1596 46.579L47.7238 46.3341L47.7133 46.3527L47.7045 46.3721L48.1596 46.579ZM6.88761 46.6627L7.34204 46.4541L7.33306 46.4346L7.32244 46.4158L6.88761 46.6627ZM26.6899 89.8147L26.2354 90.0232L26.6899 89.8147ZM28.5091 89.8113L28.9643 90.0182L28.5091 89.8113ZM50.5 35.735C50.5 39.5731 49.4945 43.1833 47.7238 46.3341L48.5955 46.824C50.4475 43.5286 51.5 39.7503 51.5 35.735H50.5ZM27.5 13.5C40.2183 13.5 50.5 23.4704 50.5 35.735H51.5C51.5 22.8872 40.7391 12.5 27.5 12.5V13.5ZM4.5 35.735C4.5 23.4704 14.7817 13.5 27.5 13.5V12.5C14.2609 12.5 3.5 22.8872 3.5 35.735H4.5ZM7.32244 46.4158C5.52301 43.2458 4.5 39.6063 4.5 35.735H3.5C3.5 39.7851 4.5708 43.594 6.45278 46.9095L7.32244 46.4158ZM27.1443 89.6062L7.34204 46.4541L6.43317 46.8712L26.2354 90.0232L27.1443 89.6062ZM28.0539 89.6044C27.8766 89.9945 27.3229 89.9955 27.1443 89.6062L26.2354 90.0232C26.7715 91.1914 28.4325 91.1883 28.9643 90.0182L28.0539 89.6044ZM47.7045 46.3721L28.0539 89.6044L28.9643 90.0182L48.6148 46.7859L47.7045 46.3721Z" fill="#5755DF" mask="url(#path-2-inside-1_5_2)"/>
<circle cx="27" cy="35" r="15" fill="white"/>
<path d="M58.6013 28.0159H64.2173V52.9639H58.6013V28.0159Z" fill="#1E1E1E"/>
<path d="M70.6319 34.6759C71.5439 34.4119 72.7199 34.1719 74.1599 33.9559C75.5999 33.7159 77.1119 33.5959 78.6959 33.5959C80.3039 33.5959 81.6359 33.8119 82.6919 34.2439C83.7719 34.6519 84.6239 35.2399 85.2479 36.0079C85.8719 36.7759 86.3159 37.6879 86.5799 38.7439C86.8439 39.7999 86.9759 40.9759 86.9759 42.2719V52.9639H81.6119V42.9199C81.6119 41.1919 81.3839 39.9679 80.9279 39.2479C80.4719 38.5279 79.6199 38.1679 78.3719 38.1679C77.9879 38.1679 77.5799 38.1919 77.1479 38.2399C76.7159 38.2639 76.3319 38.2999 75.9959 38.3479V52.9639H70.6319V34.6759Z" fill="#1E1E1E"/>
<path d="M101.039 25.0279C102.047 25.0279 102.971 25.1359 103.811 25.3519C104.651 25.5439 105.299 25.7359 105.755 25.9279L104.711 30.2119C104.231 29.9959 103.703 29.8399 103.127 29.7439C102.575 29.6239 102.059 29.5639 101.579 29.5639C100.931 29.5639 100.379 29.6599 99.9231 29.8519C99.4911 30.0199 99.1431 30.2599 98.8791 30.5719C98.6391 30.8839 98.4591 31.2559 98.3391 31.6879C98.2431 32.1199 98.1951 32.5879 98.1951 33.0919V34.0279H104.819V38.4919H98.1951V52.9639H92.8311V33.0199C92.8311 30.5719 93.5151 28.6279 94.8831 27.1879C96.2751 25.7479 98.3271 25.0279 101.039 25.0279Z" fill="#1E1E1E"/>
<path d="M126.449 43.4599C126.449 44.9479 126.233 46.3159 125.801 47.5639C125.369 48.7879 124.745 49.8439 123.929 50.7319C123.113 51.5959 122.129 52.2679 120.977 52.7479C119.849 53.2279 118.577 53.4679 117.161 53.4679C115.769 53.4679 114.497 53.2279 113.345 52.7479C112.217 52.2679 111.245 51.5959 110.429 50.7319C109.613 49.8439 108.977 48.7879 108.521 47.5639C108.065 46.3159 107.837 44.9479 107.837 43.4599C107.837 41.9719 108.065 40.6159 108.521 39.3919C109.001 38.1679 109.649 37.1239 110.465 36.2599C111.305 35.3959 112.289 34.7239 113.417 34.2439C114.569 33.7639 115.817 33.5239 117.161 33.5239C118.529 33.5239 119.777 33.7639 120.905 34.2439C122.057 34.7239 123.041 35.3959 123.857 36.2599C124.673 37.1239 125.309 38.1679 125.765 39.3919C126.221 40.6159 126.449 41.9719 126.449 43.4599ZM120.977 43.4599C120.977 41.8039 120.641 40.5079 119.969 39.5719C119.321 38.6119 118.385 38.1319 117.161 38.1319C115.937 38.1319 114.989 38.6119 114.317 39.5719C113.645 40.5079 113.309 41.8039 113.309 43.4599C113.309 45.1159 113.645 46.4359 114.317 47.4199C114.989 48.3799 115.937 48.8599 117.161 48.8599C118.385 48.8599 119.321 48.3799 119.969 47.4199C120.641 46.4359 120.977 45.1159 120.977 43.4599Z" fill="#1E1E1E"/>
<path d="M143.017 38.7799C142.537 38.6599 141.973 38.5399 141.325 38.4199C140.677 38.2759 139.981 38.2039 139.237 38.2039C138.901 38.2039 138.493 38.2399 138.013 38.3119C137.557 38.3599 137.209 38.4199 136.969 38.4919V52.9639H131.605V35.0359C132.565 34.6999 133.693 34.3879 134.989 34.0999C136.309 33.7879 137.773 33.6319 139.381 33.6319C139.669 33.6319 140.017 33.6559 140.425 33.7039C140.833 33.7279 141.241 33.7759 141.649 33.8479C142.057 33.8959 142.465 33.9679 142.873 34.0639C143.281 34.1359 143.629 34.2319 143.917 34.3519L143.017 38.7799Z" fill="#1E1E1E"/>
<path d="M158.196 42.9199C158.196 41.1919 157.968 39.9679 157.512 39.2479C157.08 38.5279 156.324 38.1679 155.244 38.1679C154.908 38.1679 154.56 38.1919 154.2 38.2399C153.84 38.2639 153.492 38.2999 153.156 38.3479V52.9639H147.792V34.6759C148.248 34.5559 148.776 34.4359 149.376 34.3159C150 34.1719 150.648 34.0519 151.32 33.9559C152.016 33.8359 152.724 33.7519 153.444 33.7039C154.164 33.6319 154.872 33.5959 155.568 33.5959C156.936 33.5959 158.04 33.7759 158.88 34.1359C159.744 34.4719 160.452 34.8799 161.004 35.3599C161.772 34.8079 162.648 34.3759 163.632 34.0639C164.64 33.7519 165.564 33.5959 166.404 33.5959C167.916 33.5959 169.152 33.8119 170.112 34.2439C171.096 34.6519 171.876 35.2399 172.452 36.0079C173.028 36.7759 173.424 37.6879 173.64 38.7439C173.856 39.7999 173.964 40.9759 173.964 42.2719V52.9639H168.6V42.9199C168.6 41.1919 168.372 39.9679 167.916 39.2479C167.484 38.5279 166.728 38.1679 165.648 38.1679C165.36 38.1679 164.952 38.2399 164.424 38.3839C163.92 38.5279 163.5 38.7079 163.164 38.9239C163.332 39.4759 163.44 40.0639 163.488 40.6879C163.536 41.2879 163.56 41.9359 163.56 42.6319V52.9639H158.196V42.9199Z" fill="#1E1E1E"/>
<path d="M187.071 49.2199C187.599 49.2199 188.103 49.2079 188.583 49.1839C189.063 49.1599 189.447 49.1239 189.735 49.0759V45.0079C189.519 44.9599 189.195 44.9119 188.763 44.8639C188.331 44.8159 187.935 44.7919 187.575 44.7919C187.071 44.7919 186.591 44.8279 186.135 44.8999C185.703 44.9479 185.319 45.0559 184.983 45.2239C184.647 45.3919 184.383 45.6199 184.191 45.9079C183.999 46.1959 183.903 46.5559 183.903 46.9879C183.903 47.8279 184.179 48.4159 184.731 48.7519C185.307 49.0639 186.087 49.2199 187.071 49.2199ZM186.639 33.5239C188.223 33.5239 189.543 33.7039 190.599 34.0639C191.655 34.4239 192.495 34.9399 193.119 35.6119C193.767 36.2839 194.223 37.0999 194.487 38.0599C194.751 39.0199 194.883 40.0879 194.883 41.2639V52.4239C194.115 52.5919 193.047 52.7839 191.679 52.9999C190.311 53.2399 188.655 53.3599 186.711 53.3599C185.487 53.3599 184.371 53.2519 183.363 53.0359C182.379 52.8199 181.527 52.4719 180.807 51.9919C180.087 51.4879 179.535 50.8399 179.151 50.0479C178.767 49.2559 178.575 48.2839 178.575 47.1319C178.575 46.0279 178.791 45.0919 179.223 44.3239C179.679 43.5559 180.279 42.9439 181.023 42.4879C181.767 42.0319 182.619 41.7079 183.579 41.5159C184.539 41.2999 185.535 41.1919 186.567 41.1919C187.263 41.1919 187.875 41.2279 188.403 41.2999C188.955 41.3479 189.399 41.4199 189.735 41.5159V41.0119C189.735 40.0999 189.459 39.3679 188.907 38.8159C188.355 38.2639 187.395 37.9879 186.027 37.9879C185.115 37.9879 184.215 38.0599 183.327 38.2039C182.439 38.3239 181.671 38.5039 181.023 38.7439L180.339 34.4239C180.651 34.3279 181.035 34.2319 181.491 34.1359C181.971 34.0159 182.487 33.9199 183.039 33.8479C183.591 33.7519 184.167 33.6799 184.767 33.6319C185.391 33.5599 186.015 33.5239 186.639 33.5239Z" fill="#1E1E1E"/>
<path d="M200.553 29.3119L205.917 28.4479V34.0279H212.361V38.4919H205.917V45.1519C205.917 46.2799 206.109 47.1799 206.493 47.8519C206.901 48.5239 207.705 48.8599 208.905 48.8599C209.481 48.8599 210.069 48.8119 210.669 48.7159C211.293 48.5959 211.857 48.4399 212.361 48.2479L213.117 52.4239C212.469 52.6879 211.749 52.9159 210.957 53.1079C210.165 53.2999 209.193 53.3959 208.041 53.3959C206.577 53.3959 205.365 53.2039 204.405 52.8199C203.445 52.4119 202.677 51.8599 202.101 51.1639C201.525 50.4439 201.117 49.5799 200.877 48.5719C200.661 47.5639 200.553 46.4479 200.553 45.2239V29.3119Z" fill="#1E1E1E"/>
<path d="M216.126 43.6399C216.126 41.9599 216.378 40.4959 216.882 39.2479C217.41 37.9759 218.094 36.9199 218.934 36.0799C219.774 35.2399 220.734 34.6039 221.814 34.1719C222.918 33.7399 224.046 33.5239 225.198 33.5239C227.886 33.5239 230.01 34.3519 231.57 36.0079C233.13 37.6399 233.91 40.0519 233.91 43.2439C233.91 43.5559 233.898 43.9039 233.874 44.2879C233.85 44.6479 233.826 44.9719 233.802 45.2599H221.634C221.754 46.3639 222.27 47.2399 223.182 47.8879C224.094 48.5359 225.318 48.8599 226.854 48.8599C227.838 48.8599 228.798 48.7759 229.734 48.6079C230.694 48.4159 231.474 48.1879 232.074 47.9239L232.794 52.2799C232.506 52.4239 232.122 52.5679 231.642 52.7119C231.162 52.8559 230.622 52.9759 230.022 53.0719C229.446 53.1919 228.822 53.2879 228.15 53.3599C227.478 53.4319 226.806 53.4679 226.134 53.4679C224.43 53.4679 222.942 53.2159 221.67 52.7119C220.422 52.2079 219.378 51.5239 218.538 50.6599C217.722 49.7719 217.11 48.7279 216.702 47.5279C216.318 46.3279 216.126 45.0319 216.126 43.6399ZM228.726 41.5879C228.702 41.1319 228.618 40.6879 228.474 40.2559C228.354 39.8239 228.15 39.4399 227.862 39.1039C227.598 38.7679 227.25 38.4919 226.818 38.2759C226.41 38.0599 225.894 37.9519 225.27 37.9519C224.67 37.9519 224.154 38.0599 223.722 38.2759C223.29 38.4679 222.93 38.7319 222.642 39.0679C222.354 39.4039 222.126 39.7999 221.958 40.2559C221.814 40.6879 221.706 41.1319 221.634 41.5879H228.726Z" fill="#1E1E1E"/>
<path d="M69.5453 92.5039C67.7933 92.5039 66.1973 92.2159 64.7573 91.6399C63.3173 91.0639 62.0813 90.2239 61.0493 89.1199C60.0173 88.0159 59.2133 86.6599 58.6373 85.0519C58.0853 83.4199 57.8093 81.5599 57.8093 79.4719C57.8093 77.3839 58.1213 75.5359 58.7453 73.9279C59.3933 72.2959 60.2573 70.9279 61.3373 69.8239C62.4173 68.7199 63.6773 67.8799 65.1173 67.3039C66.5573 66.7279 68.0933 66.4399 69.7253 66.4399C70.7573 66.4399 71.6813 66.5119 72.4973 66.6559C73.3373 66.7999 74.0573 66.9679 74.6573 67.1599C75.2813 67.3519 75.7853 67.5439 76.1693 67.7359C76.5533 67.9279 76.8173 68.0719 76.9613 68.1679L75.9533 71.0479C75.7373 70.9039 75.4253 70.7479 75.0173 70.5799C74.6093 70.4119 74.1413 70.2439 73.6133 70.0759C73.1093 69.9079 72.5453 69.7759 71.9213 69.6799C71.3213 69.5599 70.7093 69.4999 70.0853 69.4999C68.7653 69.4999 67.5773 69.7279 66.5213 70.1839C65.4653 70.6399 64.5653 71.2999 63.8213 72.1639C63.0773 73.0279 62.5013 74.0839 62.0933 75.3319C61.7093 76.5559 61.5173 77.9359 61.5173 79.4719C61.5173 80.9599 61.6853 82.3159 62.0213 83.5399C62.3813 84.7639 62.9093 85.8199 63.6053 86.7079C64.3013 87.5719 65.1653 88.2439 66.1973 88.7239C67.2533 89.2039 68.4773 89.4439 69.8693 89.4439C71.4773 89.4439 72.8093 89.2759 73.8653 88.9399C74.9213 88.6039 75.7133 88.3039 76.2413 88.0399L77.1413 90.9199C76.9733 91.0399 76.6733 91.1959 76.2413 91.3879C75.8093 91.5559 75.2693 91.7239 74.6213 91.8919C73.9733 92.0599 73.2173 92.2039 72.3533 92.3239C71.4893 92.4439 70.5533 92.5039 69.5453 92.5039Z" fill="#1E1E1E"/>
<path d="M85.2735 91.9639H81.9255V73.2439H85.2735V91.9639ZM83.5815 69.8599C82.9815 69.8599 82.4655 69.6679 82.0335 69.2839C81.6255 68.8759 81.4215 68.3359 81.4215 67.6639C81.4215 66.9919 81.6255 66.4639 82.0335 66.0799C82.4655 65.6719 82.9815 65.4679 83.5815 65.4679C84.1815 65.4679 84.6855 65.6719 85.0935 66.0799C85.5255 66.4639 85.7415 66.9919 85.7415 67.6639C85.7415 68.3359 85.5255 68.8759 85.0935 69.2839C84.6855 69.6679 84.1815 69.8599 83.5815 69.8599Z" fill="#1E1E1E"/>
<path d="M106.935 91.4239C106.167 91.6159 105.147 91.8199 103.875 92.0359C102.627 92.2519 101.175 92.3599 99.519 92.3599C98.079 92.3599 96.867 92.1559 95.883 91.7479C94.899 91.3159 94.107 90.7159 93.507 89.9479C92.907 89.1799 92.475 88.2799 92.211 87.2479C91.947 86.1919 91.815 85.0279 91.815 83.7559V73.2439H95.163V83.0359C95.163 85.3159 95.523 86.9479 96.243 87.9319C96.963 88.9159 98.175 89.4079 99.879 89.4079C100.239 89.4079 100.611 89.3959 100.995 89.3719C101.379 89.3479 101.739 89.3239 102.075 89.2999C102.411 89.2519 102.711 89.2159 102.975 89.1919C103.263 89.1439 103.467 89.0959 103.587 89.0479V73.2439H106.935V91.4239Z" fill="#1E1E1E"/>
<path d="M125.799 77.2039C125.391 76.8679 124.803 76.5439 124.035 76.2319C123.267 75.9199 122.427 75.7639 121.515 75.7639C120.555 75.7639 119.727 75.9439 119.031 76.3039C118.359 76.6399 117.807 77.1199 117.375 77.7439C116.943 78.3439 116.631 79.0639 116.439 79.9039C116.247 80.7439 116.151 81.6439 116.151 82.6039C116.151 84.7879 116.691 86.4799 117.771 87.6799C118.851 88.8559 120.291 89.4439 122.091 89.4439C123.003 89.4439 123.759 89.4079 124.359 89.3359C124.983 89.2399 125.463 89.1439 125.799 89.0479V77.2039ZM125.799 64.6039L129.147 64.0279V91.4239C128.379 91.6399 127.395 91.8559 126.195 92.0719C124.995 92.2879 123.615 92.3959 122.055 92.3959C120.615 92.3959 119.319 92.1679 118.167 91.7119C117.015 91.2559 116.031 90.6079 115.215 89.7679C114.399 88.9279 113.763 87.9079 113.307 86.7079C112.875 85.4839 112.659 84.1159 112.659 82.6039C112.659 81.1639 112.839 79.8439 113.199 78.6439C113.583 77.4439 114.135 76.4119 114.855 75.5479C115.575 74.6839 116.451 74.0119 117.483 73.5319C118.539 73.0519 119.739 72.8119 121.083 72.8119C122.163 72.8119 123.111 72.9559 123.927 73.2439C124.767 73.5319 125.391 73.8079 125.799 74.0719V64.6039Z" fill="#1E1E1E"/>
<path d="M142.238 89.5519C143.03 89.5519 143.726 89.5399 144.326 89.5159C144.95 89.4679 145.466 89.3959 145.874 89.2999V83.7199C145.634 83.5999 145.238 83.5039 144.686 83.4319C144.158 83.3359 143.51 83.2879 142.742 83.2879C142.238 83.2879 141.698 83.3239 141.122 83.3959C140.57 83.4679 140.054 83.6239 139.574 83.8639C139.118 84.0799 138.734 84.3919 138.422 84.7999C138.11 85.1839 137.954 85.6999 137.954 86.3479C137.954 87.5479 138.338 88.3879 139.106 88.8679C139.874 89.3239 140.918 89.5519 142.238 89.5519ZM141.95 72.7759C143.294 72.7759 144.422 72.9559 145.334 73.3159C146.27 73.6519 147.014 74.1439 147.566 74.7919C148.142 75.4159 148.55 76.1719 148.79 77.0599C149.03 77.9239 149.15 78.8839 149.15 79.9399V91.6399C148.862 91.6879 148.454 91.7599 147.926 91.8559C147.422 91.9279 146.846 91.9999 146.198 92.0719C145.55 92.1439 144.842 92.2039 144.074 92.2519C143.33 92.3239 142.586 92.3599 141.842 92.3599C140.786 92.3599 139.814 92.2519 138.926 92.0359C138.038 91.8199 137.27 91.4839 136.622 91.0279C135.974 90.5479 135.47 89.9239 135.11 89.1559C134.75 88.3879 134.57 87.4639 134.57 86.3839C134.57 85.3519 134.774 84.4639 135.182 83.7199C135.614 82.9759 136.19 82.3759 136.91 81.9199C137.63 81.4639 138.47 81.1279 139.43 80.9119C140.39 80.6959 141.398 80.5879 142.454 80.5879C142.79 80.5879 143.138 80.6119 143.498 80.6599C143.858 80.6839 144.194 80.7319 144.506 80.8039C144.842 80.8519 145.13 80.8999 145.37 80.9479C145.61 80.9959 145.778 81.0319 145.874 81.0559V80.1199C145.874 79.5679 145.814 79.0279 145.694 78.4999C145.574 77.9479 145.358 77.4679 145.046 77.0599C144.734 76.6279 144.302 76.2919 143.75 76.0519C143.222 75.7879 142.526 75.6559 141.662 75.6559C140.558 75.6559 139.586 75.7399 138.746 75.9079C137.93 76.0519 137.318 76.2079 136.91 76.3759L136.514 73.6039C136.946 73.4119 137.666 73.2319 138.674 73.0639C139.682 72.8719 140.774 72.7759 141.95 72.7759Z" fill="#1E1E1E"/>
<path d="M167.807 77.2039C167.399 76.8679 166.811 76.5439 166.043 76.2319C165.275 75.9199 164.435 75.7639 163.523 75.7639C162.563 75.7639 161.735 75.9439 161.039 76.3039C160.367 76.6399 159.815 77.1199 159.383 77.7439C158.951 78.3439 158.639 79.0639 158.447 79.9039C158.255 80.7439 158.159 81.6439 158.159 82.6039C158.159 84.7879 158.699 86.4799 159.779 87.6799C160.859 88.8559 162.299 89.4439 164.099 89.4439C165.011 89.4439 165.767 89.4079 166.367 89.3359C166.991 89.2399 167.471 89.1439 167.807 89.0479V77.2039ZM167.807 64.6039L171.155 64.0279V91.4239C170.387 91.6399 169.403 91.8559 168.203 92.0719C167.003 92.2879 165.623 92.3959 164.063 92.3959C162.623 92.3959 161.327 92.1679 160.175 91.7119C159.023 91.2559 158.039 90.6079 157.223 89.7679C156.407 88.9279 155.771 87.9079 155.315 86.7079C154.883 85.4839 154.667 84.1159 154.667 82.6039C154.667 81.1639 154.847 79.8439 155.207 78.6439C155.591 77.4439 156.143 76.4119 156.863 75.5479C157.583 74.6839 158.459 74.0119 159.491 73.5319C160.547 73.0519 161.747 72.8119 163.091 72.8119C164.171 72.8119 165.119 72.9559 165.935 73.2439C166.775 73.5319 167.399 73.8079 167.807 74.0719V64.6039Z" fill="#1E1E1E"/>
</svg>
